<?xml version="1.0" encoding="UTF-8" standalone="no"?><svg xmlns="http://www.w3.org/2000/svg" xmlns:xlink="http://www.w3.org/1999/xlink" contentScriptType="application/ecmascript" contentStyleType="text/css" height="373px" preserveAspectRatio="none" style="width:808px;height:373px;background:#FFFFFF;" version="1.1" viewBox="0 0 808 373" width="808px" zoomAndPan="magnify"><defs><filter height="300%" id="f1nvwdyb82ip94" width="300%" x="-1" y="-1"><feGaussianBlur result="blurOut" stdDeviation="2.0"/><feColorMatrix in="blurOut" result="blurOut2" type="matrix" values="0 0 0 0 0 0 0 0 0 0 0 0 0 0 0 0 0 0 .4 0"/><feOffset dx="4.0" dy="4.0" in="blurOut2" result="blurOut3"/><feBlend in="SourceGraphic" in2="blurOut3" mode="normal"/></filter></defs><g><!--MD5=[6c5a1df16b349710896412088ac51954]
cluster 阻害音--><polygon fill="#FFFFFF" filter="url(#f1nvwdyb82ip94)" points="532,6,580,6,587,28.4883,791,28.4883,791,366.5,532,366.5,532,6" style="stroke:#000000;stroke-width:1.5;"/><line style="stroke:#000000;stroke-width:1.5;" x1="532" x2="587" y1="28.4883" y2="28.4883"/><text fill="#000000" font-family="sans-serif" font-size="14" font-weight="bold" lengthAdjust="spacing" textLength="42" x="536" y="21.5352">阻害音</text><!--MD5=[61a1e84a5e50034fa098d0a43960667a]
cluster 阻害音.ex--><polygon fill="#FFFFFF" filter="url(#f1nvwdyb82ip94)" points="695,49,717,49,724,71.4883,767,71.4883,767,148,695,148,695,49" style="stroke:#000000;stroke-width:1.5;"/><line style="stroke:#000000;stroke-width:1.5;" x1="695" x2="724" y1="71.4883" y2="71.4883"/><text fill="#000000" font-family="sans-serif" font-size="14" font-weight="bold" lengthAdjust="spacing" textLength="16" x="699" y="64.5352">ex</text><!--MD5=[390d4510b68560b52a75e0958d6e370a]
cluster 共鳴音--><polygon fill="#FFFFFF" filter="url(#f1nvwdyb82ip94)" points="16,6,64,6,71,28.4883,449,28.4883,449,366.5,16,366.5,16,6" style="stroke:#000000;stroke-width:1.5;"/><line style="stroke:#000000;stroke-width:1.5;" x1="16" x2="71" y1="28.4883" y2="28.4883"/><text fill="#000000" font-family="sans-serif" font-size="14" font-weight="bold" lengthAdjust="spacing" textLength="42" x="20" y="21.5352">共鳴音</text><!--MD5=[1a4dc8d9e46bed0bccd5300dca5e0f4a]
cluster 共鳴音.ex--><polygon fill="#FFFFFF" filter="url(#f1nvwdyb82ip94)" points="152,49,174,49,181,71.4883,425,71.4883,425,258.5,152,258.5,152,49" style="stroke:#000000;stroke-width:1.5;"/><line style="stroke:#000000;stroke-width:1.5;" x1="152" x2="181" y1="71.4883" y2="71.4883"/><text fill="#000000" font-family="sans-serif" font-size="14" font-weight="bold" lengthAdjust="spacing" textLength="16" x="156" y="64.5352">ex</text><!--MD5=[ef0f6df93fed041ff10caf9f91ed3938]
class 阻害音.濁点がつけられる--><rect codeLine="6" fill="#FEFECE" filter="url(#f1nvwdyb82ip94)" height="48" id="阻害音.濁点がつけられる" style="stroke:#A80036;stroke-width:1.5;" width="128" x="548" y="84"/><ellipse cx="563" cy="100" fill="#ADD1B2" rx="11" ry="11" style="stroke:#A80036;stroke-width:1.0;"/><path d="M565.4731,106.1431 Q564.8921,106.4419 564.2529,106.5913 Q563.6138,106.7407 562.9082,106.7407 Q560.4014,106.7407 559.0815,105.0889 Q557.7617,103.437 557.7617,100.3159 Q557.7617,97.1865 559.0815,95.5347 Q560.4014,93.8828 562.9082,93.8828 Q563.6138,93.8828 564.2612,94.0322 Q564.9087,94.1816 565.4731,94.4805 L565.4731,97.2031 Q564.8423,96.6221 564.2488,96.3523 Q563.6553,96.0825 563.0244,96.0825 Q561.6797,96.0825 560.9949,97.1492 Q560.3101,98.2158 560.3101,100.3159 Q560.3101,102.4077 560.9949,103.4744 Q561.6797,104.541 563.0244,104.541 Q563.6553,104.541 564.2488,104.2712 Q564.8423,104.0015 565.4731,103.4204 Z " fill="#000000"/><text fill="#000000" font-family="sans-serif" font-size="12" lengthAdjust="spacing" textLength="96" x="577" y="104.5352">濁点がつけられる</text><line style="stroke:#A80036;stroke-width:1.5;" x1="549" x2="675" y1="116" y2="116"/><line style="stroke:#A80036;stroke-width:1.5;" x1="549" x2="675" y1="124" y2="124"/><!--MD5=[a11430c76fafd716b941cb054fadb4ae]
class 阻害音.阻害音判定--><rect codeLine="8" fill="#FEFECE" filter="url(#f1nvwdyb82ip94)" height="48" id="阻害音.阻害音判定" style="stroke:#A80036;stroke-width:1.5;" width="92" x="566" y="194.5"/><ellipse cx="581" cy="210.5" fill="#ADD1B2" rx="11" ry="11" style="stroke:#A80036;stroke-width:1.0;"/><path d="M583.4731,216.6431 Q582.8921,216.9419 582.2529,217.0913 Q581.6138,217.2407 580.9082,217.2407 Q578.4014,217.2407 577.0815,215.5889 Q575.7617,213.937 575.7617,210.8159 Q575.7617,207.6865 577.0815,206.0347 Q578.4014,204.3828 580.9082,204.3828 Q581.6138,204.3828 582.2612,204.5322 Q582.9087,204.6816 583.4731,204.9805 L583.4731,207.7031 Q582.8423,207.1221 582.2488,206.8523 Q581.6553,206.5825 581.0244,206.5825 Q579.6797,206.5825 578.9949,207.6492 Q578.3101,208.7158 578.3101,210.8159 Q578.3101,212.9077 578.9949,213.9744 Q579.6797,215.041 581.0244,215.041 Q581.6553,215.041 582.2488,214.7712 Q582.8423,214.5015 583.4731,213.9204 Z " fill="#000000"/><text fill="#000000" font-family="sans-serif" font-size="12" lengthAdjust="spacing" textLength="60" x="595" y="215.0352">阻害音判定</text><line style="stroke:#A80036;stroke-width:1.5;" x1="567" x2="657" y1="226.5" y2="226.5"/><line style="stroke:#A80036;stroke-width:1.5;" x1="567" x2="657" y1="234.5" y2="234.5"/><!--MD5=[fe249c4ebe119bfe1f65ea01c2585ca9]
class 阻害音.男性的--><rect codeLine="11" fill="#FEFECE" filter="url(#f1nvwdyb82ip94)" height="48" id="阻害音.男性的" style="stroke:#A80036;stroke-width:1.5;" width="68" x="578" y="302.5"/><ellipse cx="593" cy="318.5" fill="#ADD1B2" rx="11" ry="11" style="stroke:#A80036;stroke-width:1.0;"/><path d="M595.4731,324.6431 Q594.8921,324.9419 594.2529,325.0913 Q593.6138,325.2407 592.9082,325.2407 Q590.4014,325.2407 589.0815,323.5889 Q587.7617,321.937 587.7617,318.8159 Q587.7617,315.6865 589.0815,314.0347 Q590.4014,312.3828 592.9082,312.3828 Q593.6138,312.3828 594.2612,312.5322 Q594.9087,312.6816 595.4731,312.9805 L595.4731,315.7031 Q594.8423,315.1221 594.2488,314.8523 Q593.6553,314.5825 593.0244,314.5825 Q591.6797,314.5825 590.9949,315.6492 Q590.3101,316.7158 590.3101,318.8159 Q590.3101,320.9077 590.9949,321.9744 Q591.6797,323.041 593.0244,323.041 Q593.6553,323.041 594.2488,322.7712 Q594.8423,322.5015 595.4731,321.9204 Z " fill="#000000"/><text fill="#000000" font-family="sans-serif" font-size="12" lengthAdjust="spacing" textLength="36" x="607" y="323.0352">男性的</text><line style="stroke:#A80036;stroke-width:1.5;" x1="579" x2="645" y1="334.5" y2="334.5"/><line style="stroke:#A80036;stroke-width:1.5;" x1="579" x2="645" y1="342.5" y2="342.5"/><!--MD5=[d9a747445ced851ea057260351ae5f45]
class 阻害音.ex.5--><rect codeLine="4" fill="#FEFECE" filter="url(#f1nvwdyb82ip94)" height="48" id="阻害音.ex.5" style="stroke:#A80036;stroke-width:1.5;" width="40" x="711" y="84"/><ellipse cx="726" cy="100" fill="#ADD1B2" rx="11" ry="11" style="stroke:#A80036;stroke-width:1.0;"/><path d="M728.4731,106.1431 Q727.8921,106.4419 727.2529,106.5913 Q726.6138,106.7407 725.9082,106.7407 Q723.4014,106.7407 722.0815,105.0889 Q720.7617,103.437 720.7617,100.3159 Q720.7617,97.1865 722.0815,95.5347 Q723.4014,93.8828 725.9082,93.8828 Q726.6138,93.8828 727.2612,94.0322 Q727.9087,94.1816 728.4731,94.4805 L728.4731,97.2031 Q727.8423,96.6221 727.2488,96.3523 Q726.6553,96.0825 726.0244,96.0825 Q724.6797,96.0825 723.9949,97.1492 Q723.3101,98.2158 723.3101,100.3159 Q723.3101,102.4077 723.9949,103.4744 Q724.6797,104.541 726.0244,104.541 Q726.6553,104.541 727.2488,104.2712 Q727.8423,104.0015 728.4731,103.4204 Z " fill="#000000"/><text fill="#000000" font-family="sans-serif" font-size="12" lengthAdjust="spacing" textLength="8" x="740" y="104.5352">5</text><line style="stroke:#A80036;stroke-width:1.5;" x1="712" x2="750" y1="116" y2="116"/><line style="stroke:#A80036;stroke-width:1.5;" x1="712" x2="750" y1="124" y2="124"/><!--MD5=[fdfaa63da44d28dbb2697a5ba3451fc0]
class 共鳴音.濁点つかない--><rect codeLine="25" fill="#FEFECE" filter="url(#f1nvwdyb82ip94)" height="48" id="共鳴音.濁点つかない" style="stroke:#A80036;stroke-width:1.5;" width="104" x="32" y="84"/><ellipse cx="47" cy="100" fill="#ADD1B2" rx="11" ry="11" style="stroke:#A80036;stroke-width:1.0;"/><path d="M49.4731,106.1431 Q48.8921,106.4419 48.2529,106.5913 Q47.6138,106.7407 46.9082,106.7407 Q44.4014,106.7407 43.0815,105.0889 Q41.7617,103.437 41.7617,100.3159 Q41.7617,97.1865 43.0815,95.5347 Q44.4014,93.8828 46.9082,93.8828 Q47.6138,93.8828 48.2612,94.0322 Q48.9087,94.1816 49.4731,94.4805 L49.4731,97.2031 Q48.8423,96.6221 48.2488,96.3523 Q47.6553,96.0825 47.0244,96.0825 Q45.6797,96.0825 44.9949,97.1492 Q44.3101,98.2158 44.3101,100.3159 Q44.3101,102.4077 44.9949,103.4744 Q45.6797,104.541 47.0244,104.541 Q47.6553,104.541 48.2488,104.2712 Q48.8423,104.0015 49.4731,103.4204 Z " fill="#000000"/><text fill="#000000" font-family="sans-serif" font-size="12" lengthAdjust="spacing" textLength="72" x="61" y="104.5352">濁点つかない</text><line style="stroke:#A80036;stroke-width:1.5;" x1="33" x2="135" y1="116" y2="116"/><line style="stroke:#A80036;stroke-width:1.5;" x1="33" x2="135" y1="124" y2="124"/><!--MD5=[2f7f9740047c7d6f1ff6adc3dd636b71]
class 共鳴音.共鳴音判定--><rect codeLine="27" fill="#FEFECE" filter="url(#f1nvwdyb82ip94)" height="48" id="共鳴音.共鳴音判定" style="stroke:#A80036;stroke-width:1.5;" width="92" x="38" y="194.5"/><ellipse cx="53" cy="210.5" fill="#ADD1B2" rx="11" ry="11" style="stroke:#A80036;stroke-width:1.0;"/><path d="M55.4731,216.6431 Q54.8921,216.9419 54.2529,217.0913 Q53.6138,217.2407 52.9082,217.2407 Q50.4014,217.2407 49.0815,215.5889 Q47.7617,213.937 47.7617,210.8159 Q47.7617,207.6865 49.0815,206.0347 Q50.4014,204.3828 52.9082,204.3828 Q53.6138,204.3828 54.2612,204.5322 Q54.9087,204.6816 55.4731,204.9805 L55.4731,207.7031 Q54.8423,207.1221 54.2488,206.8523 Q53.6553,206.5825 53.0244,206.5825 Q51.6797,206.5825 50.9949,207.6492 Q50.3101,208.7158 50.3101,210.8159 Q50.3101,212.9077 50.9949,213.9744 Q51.6797,215.041 53.0244,215.041 Q53.6553,215.041 54.2488,214.7712 Q54.8423,214.5015 55.4731,213.9204 Z " fill="#000000"/><text fill="#000000" font-family="sans-serif" font-size="12" lengthAdjust="spacing" textLength="60" x="67" y="215.0352">共鳴音判定</text><line style="stroke:#A80036;stroke-width:1.5;" x1="39" x2="129" y1="226.5" y2="226.5"/><line style="stroke:#A80036;stroke-width:1.5;" x1="39" x2="129" y1="234.5" y2="234.5"/><!--MD5=[b74d16431f00ea7dc3d0187127edaec5]
class 共鳴音.女性的--><rect codeLine="30" fill="#FEFECE" filter="url(#f1nvwdyb82ip94)" height="48" id="共鳴音.女性的" style="stroke:#A80036;stroke-width:1.5;" width="68" x="50" y="302.5"/><ellipse cx="65" cy="318.5" fill="#ADD1B2" rx="11" ry="11" style="stroke:#A80036;stroke-width:1.0;"/><path d="M67.4731,324.6431 Q66.8921,324.9419 66.2529,325.0913 Q65.6138,325.2407 64.9082,325.2407 Q62.4014,325.2407 61.0815,323.5889 Q59.7617,321.937 59.7617,318.8159 Q59.7617,315.6865 61.0815,314.0347 Q62.4014,312.3828 64.9082,312.3828 Q65.6138,312.3828 66.2612,312.5322 Q66.9087,312.6816 67.4731,312.9805 L67.4731,315.7031 Q66.8423,315.1221 66.2488,314.8523 Q65.6553,314.5825 65.0244,314.5825 Q63.6797,314.5825 62.9949,315.6492 Q62.3101,316.7158 62.3101,318.8159 Q62.3101,320.9077 62.9949,321.9744 Q63.6797,323.041 65.0244,323.041 Q65.6553,323.041 66.2488,322.7712 Q66.8423,322.5015 67.4731,321.9204 Z " fill="#000000"/><text fill="#000000" font-family="sans-serif" font-size="12" lengthAdjust="spacing" textLength="36" x="79" y="323.0352">女性的</text><line style="stroke:#A80036;stroke-width:1.5;" x1="51" x2="117" y1="334.5" y2="334.5"/><line style="stroke:#A80036;stroke-width:1.5;" x1="51" x2="117" y1="342.5" y2="342.5"/><!--MD5=[4ed8908f8b392f95eabe660fb0618a2b]
class 共鳴音.ex.m--><rect codeLine="18" fill="#FEFECE" filter="url(#f1nvwdyb82ip94)" height="48" id="共鳴音.ex.m" style="stroke:#A80036;stroke-width:1.5;" width="43" x="171.5" y="84"/><ellipse cx="186.5" cy="100" fill="#ADD1B2" rx="11" ry="11" style="stroke:#A80036;stroke-width:1.0;"/><path d="M188.9731,106.1431 Q188.3921,106.4419 187.7529,106.5913 Q187.1138,106.7407 186.4082,106.7407 Q183.9014,106.7407 182.5815,105.0889 Q181.2617,103.437 181.2617,100.3159 Q181.2617,97.1865 182.5815,95.5347 Q183.9014,93.8828 186.4082,93.8828 Q187.1138,93.8828 187.7612,94.0322 Q188.4087,94.1816 188.9731,94.4805 L188.9731,97.2031 Q188.3423,96.6221 187.7488,96.3523 Q187.1553,96.0825 186.5244,96.0825 Q185.1797,96.0825 184.4949,97.1492 Q183.8101,98.2158 183.8101,100.3159 Q183.8101,102.4077 184.4949,103.4744 Q185.1797,104.541 186.5244,104.541 Q187.1553,104.541 187.7488,104.2712 Q188.3423,104.0015 188.9731,103.4204 Z " fill="#000000"/><text fill="#000000" font-family="sans-serif" font-size="12" lengthAdjust="spacing" textLength="11" x="200.5" y="104.5352">m</text><line style="stroke:#A80036;stroke-width:1.5;" x1="172.5" x2="213.5" y1="116" y2="116"/><line style="stroke:#A80036;stroke-width:1.5;" x1="172.5" x2="213.5" y1="124" y2="124"/><!--MD5=[cc83f8700da30edb47ddb6dff52614e4]
class 共鳴音.ex.n--><rect codeLine="19" fill="#FEFECE" filter="url(#f1nvwdyb82ip94)" height="48" id="共鳴音.ex.n" style="stroke:#A80036;stroke-width:1.5;" width="39" x="249.5" y="84"/><ellipse cx="264.5" cy="100" fill="#ADD1B2" rx="11" ry="11" style="stroke:#A80036;stroke-width:1.0;"/><path d="M266.9731,106.1431 Q266.3921,106.4419 265.7529,106.5913 Q265.1138,106.7407 264.4082,106.7407 Q261.9014,106.7407 260.5815,105.0889 Q259.2617,103.437 259.2617,100.3159 Q259.2617,97.1865 260.5815,95.5347 Q261.9014,93.8828 264.4082,93.8828 Q265.1138,93.8828 265.7612,94.0322 Q266.4087,94.1816 266.9731,94.4805 L266.9731,97.2031 Q266.3423,96.6221 265.7488,96.3523 Q265.1553,96.0825 264.5244,96.0825 Q263.1797,96.0825 262.4949,97.1492 Q261.8101,98.2158 261.8101,100.3159 Q261.8101,102.4077 262.4949,103.4744 Q263.1797,104.541 264.5244,104.541 Q265.1553,104.541 265.7488,104.2712 Q266.3423,104.0015 266.9731,103.4204 Z " fill="#000000"/><text fill="#000000" font-family="sans-serif" font-size="12" lengthAdjust="spacing" textLength="7" x="278.5" y="104.5352">n</text><line style="stroke:#A80036;stroke-width:1.5;" x1="250.5" x2="287.5" y1="116" y2="116"/><line style="stroke:#A80036;stroke-width:1.5;" x1="250.5" x2="287.5" y1="124" y2="124"/><!--MD5=[a6b6cd628640f41f6a9c1628f73c98bc]
class 共鳴音.ex.y--><rect codeLine="20" fill="#FEFECE" filter="url(#f1nvwdyb82ip94)" height="48" id="共鳴音.ex.y" style="stroke:#A80036;stroke-width:1.5;" width="38" x="324" y="84"/><ellipse cx="339" cy="100" fill="#ADD1B2" rx="11" ry="11" style="stroke:#A80036;stroke-width:1.0;"/><path d="M341.4731,106.1431 Q340.8921,106.4419 340.2529,106.5913 Q339.6138,106.7407 338.9082,106.7407 Q336.4014,106.7407 335.0815,105.0889 Q333.7617,103.437 333.7617,100.3159 Q333.7617,97.1865 335.0815,95.5347 Q336.4014,93.8828 338.9082,93.8828 Q339.6138,93.8828 340.2612,94.0322 Q340.9087,94.1816 341.4731,94.4805 L341.4731,97.2031 Q340.8423,96.6221 340.2488,96.3523 Q339.6553,96.0825 339.0244,96.0825 Q337.6797,96.0825 336.9949,97.1492 Q336.3101,98.2158 336.3101,100.3159 Q336.3101,102.4077 336.9949,103.4744 Q337.6797,104.541 339.0244,104.541 Q339.6553,104.541 340.2488,104.2712 Q340.8423,104.0015 341.4731,103.4204 Z " fill="#000000"/><text fill="#000000" font-family="sans-serif" font-size="12" lengthAdjust="spacing" textLength="6" x="353" y="104.5352">y</text><line style="stroke:#A80036;stroke-width:1.5;" x1="325" x2="361" y1="116" y2="116"/><line style="stroke:#A80036;stroke-width:1.5;" x1="325" x2="361" y1="124" y2="124"/><!--MD5=[6871725a2df1d902e3247b02a8d18355]
class 共鳴音.ex.r--><rect codeLine="21" fill="#FEFECE" filter="url(#f1nvwdyb82ip94)" height="48" id="共鳴音.ex.r" style="stroke:#A80036;stroke-width:1.5;" width="37" x="168.5" y="194.5"/><ellipse cx="183.5" cy="210.5" fill="#ADD1B2" rx="11" ry="11" style="stroke:#A80036;stroke-width:1.0;"/><path d="M185.9731,216.6431 Q185.3921,216.9419 184.7529,217.0913 Q184.1138,217.2407 183.4082,217.2407 Q180.9014,217.2407 179.5815,215.5889 Q178.2617,213.937 178.2617,210.8159 Q178.2617,207.6865 179.5815,206.0347 Q180.9014,204.3828 183.4082,204.3828 Q184.1138,204.3828 184.7612,204.5322 Q185.4087,204.6816 185.9731,204.9805 L185.9731,207.7031 Q185.3423,207.1221 184.7488,206.8523 Q184.1553,206.5825 183.5244,206.5825 Q182.1797,206.5825 181.4949,207.6492 Q180.8101,208.7158 180.8101,210.8159 Q180.8101,212.9077 181.4949,213.9744 Q182.1797,215.041 183.5244,215.041 Q184.1553,215.041 184.7488,214.7712 Q185.3423,214.5015 185.9731,213.9204 Z " fill="#000000"/><text fill="#000000" font-family="sans-serif" font-size="12" lengthAdjust="spacing" textLength="5" x="197.5" y="215.0352">r</text><line style="stroke:#A80036;stroke-width:1.5;" x1="169.5" x2="204.5" y1="226.5" y2="226.5"/><line style="stroke:#A80036;stroke-width:1.5;" x1="169.5" x2="204.5" y1="234.5" y2="234.5"/><!--MD5=[27ac5435e2b66de9e43947cb89f35b91]
class 共鳴音.ex.w--><rect codeLine="22" fill="#FEFECE" filter="url(#f1nvwdyb82ip94)" height="48" id="共鳴音.ex.w" style="stroke:#A80036;stroke-width:1.5;" width="41" x="240.5" y="194.5"/><ellipse cx="255.5" cy="210.5" fill="#ADD1B2" rx="11" ry="11" style="stroke:#A80036;stroke-width:1.0;"/><path d="M257.9731,216.6431 Q257.3921,216.9419 256.7529,217.0913 Q256.1138,217.2407 255.4082,217.2407 Q252.9014,217.2407 251.5815,215.5889 Q250.2617,213.937 250.2617,210.8159 Q250.2617,207.6865 251.5815,206.0347 Q252.9014,204.3828 255.4082,204.3828 Q256.1138,204.3828 256.7612,204.5322 Q257.4087,204.6816 257.9731,204.9805 L257.9731,207.7031 Q257.3423,207.1221 256.7488,206.8523 Q256.1553,206.5825 255.5244,206.5825 Q254.1797,206.5825 253.4949,207.6492 Q252.8101,208.7158 252.8101,210.8159 Q252.8101,212.9077 253.4949,213.9744 Q254.1797,215.041 255.5244,215.041 Q256.1553,215.041 256.7488,214.7712 Q257.3423,214.5015 257.9731,213.9204 Z " fill="#000000"/><text fill="#000000" font-family="sans-serif" font-size="12" lengthAdjust="spacing" textLength="9" x="269.5" y="215.0352">w</text><line style="stroke:#A80036;stroke-width:1.5;" x1="241.5" x2="280.5" y1="226.5" y2="226.5"/><line style="stroke:#A80036;stroke-width:1.5;" x1="241.5" x2="280.5" y1="234.5" y2="234.5"/><!--MD5=[2201bff7763b70838a1cde884c576cf1]
class 共鳴音.ex.マナヤラワ--><rect codeLine="23" fill="#FEFECE" filter="url(#f1nvwdyb82ip94)" height="48" id="共鳴音.ex.マナヤラワ" style="stroke:#A80036;stroke-width:1.5;" width="92" x="317" y="194.5"/><ellipse cx="332" cy="210.5" fill="#ADD1B2" rx="11" ry="11" style="stroke:#A80036;stroke-width:1.0;"/><path d="M334.4731,216.6431 Q333.8921,216.9419 333.2529,217.0913 Q332.6138,217.2407 331.9082,217.2407 Q329.4014,217.2407 328.0815,215.5889 Q326.7617,213.937 326.7617,210.8159 Q326.7617,207.6865 328.0815,206.0347 Q329.4014,204.3828 331.9082,204.3828 Q332.6138,204.3828 333.2612,204.5322 Q333.9087,204.6816 334.4731,204.9805 L334.4731,207.7031 Q333.8423,207.1221 333.2488,206.8523 Q332.6553,206.5825 332.0244,206.5825 Q330.6797,206.5825 329.9949,207.6492 Q329.3101,208.7158 329.3101,210.8159 Q329.3101,212.9077 329.9949,213.9744 Q330.6797,215.041 332.0244,215.041 Q332.6553,215.041 333.2488,214.7712 Q333.8423,214.5015 334.4731,213.9204 Z " fill="#000000"/><text fill="#000000" font-family="sans-serif" font-size="12" lengthAdjust="spacing" textLength="60" x="346" y="215.0352">マナヤラワ</text><line style="stroke:#A80036;stroke-width:1.5;" x1="318" x2="408" y1="226.5" y2="226.5"/><line style="stroke:#A80036;stroke-width:1.5;" x1="318" x2="408" y1="234.5" y2="234.5"/><polygon fill="#FFFFFF" filter="url(#f1nvwdyb82ip94)" points="465,81.5,499,81.5,506,103.9883,513,103.9883,513,134.4766,465,134.4766,465,81.5" style="stroke:#000000;stroke-width:1.5;"/><line style="stroke:#000000;stroke-width:1.5;" x1="465" x2="506" y1="103.9883" y2="103.9883"/><text fill="#000000" font-family="sans-serif" font-size="14" font-weight="bold" lengthAdjust="spacing" textLength="28" x="469" y="97.0352">濁音</text><!--MD5=[8028bc92007672a4c6199a224d7b5859]
link 阻害音.濁点がつけられる to 阻害音.阻害音判定--><path codeLine="9" d="M612,132.01 C612,148.58 612,171.06 612,188.81 " fill="none" id="阻害音.濁点がつけられる-to-阻害音.阻害音判定" style="stroke:#A80036;stroke-width:1.0;"/><polygon fill="#A80036" points="612,194.15,616,185.15,612,189.15,608,185.15,612,194.15" style="stroke:#A80036;stroke-width:1.0;"/><!--MD5=[583f57dfedc3e791d6127ff09a52466b]
link 阻害音.阻害音判定 to 阻害音.男性的--><path codeLine="12" d="M612,242.5 C612,258.5 612,279.95 612,297.03 " fill="none" id="阻害音.阻害音判定-to-阻害音.男性的" style="stroke:#A80036;stroke-width:1.0;"/><polygon fill="#A80036" points="612,302.18,616,293.18,612,297.18,608,293.18,612,302.18" style="stroke:#A80036;stroke-width:1.0;"/><!--MD5=[a61675b6c35f74e0897fdc9f9fc4ec13]
link 共鳴音.濁点つかない to 共鳴音.共鳴音判定--><path codeLine="28" d="M84,132.01 C84,148.58 84,171.06 84,188.81 " fill="none" id="共鳴音.濁点つかない-to-共鳴音.共鳴音判定" style="stroke:#A80036;stroke-width:1.0;"/><polygon fill="#A80036" points="84,194.15,88,185.15,84,189.15,80,185.15,84,194.15" style="stroke:#A80036;stroke-width:1.0;"/><!--MD5=[022dca637d1ba023b097e9289f9f59e6]
link 共鳴音.共鳴音判定 to 共鳴音.女性的--><path codeLine="31" d="M84,242.5 C84,258.5 84,279.95 84,297.03 " fill="none" id="共鳴音.共鳴音判定-to-共鳴音.女性的" style="stroke:#A80036;stroke-width:1.0;"/><polygon fill="#A80036" points="84,302.18,88,293.18,84,297.18,80,293.18,84,302.18" style="stroke:#A80036;stroke-width:1.0;"/><!--MD5=[895dc8430cfb75e32a50d0cd25e3f224]
link 共鳴音.ex.m to 共鳴音.ex.n--><!--MD5=[bff24c51acec8b2ea3a66d03847a8997]
link 共鳴音.ex.n to 共鳴音.ex.y--><!--MD5=[7d7b54e313f1ede36595db08b54b03a8]
link 共鳴音.ex.m to 共鳴音.ex.r--><!--MD5=[e474f71e119113a0fc7372c335fd8ebf]
link 共鳴音.ex.r to 共鳴音.ex.w--><!--MD5=[b420f6dc0f10ef597eefe616c52db19b]
link 共鳴音.ex.w to 共鳴音.ex.マナヤラワ--><!--MD5=[fdbaec0fc6472df0bdddeb9ba09895bb]
@startuml resonaunce

namespace 阻害音 {
    namespace ex {
        class 5
    } 
    class 濁点がつけられる
    
    class 阻害音判定
    濁点がつけられる - -> 阻害音判定
    
    class 男性的 
    阻害音判定 - -> 男性的
    
}

namespace 共鳴音 {
    namespace ex {
        class m
        class n
        class y
        class r
        class w
        class マナヤラワ
    }
    class 濁点つかない
    
    class 共鳴音判定
    濁点つかない - -> 共鳴音判定
    
    class 女性的 
    共鳴音判定 - -> 女性的
}

namespace 濁音 {

}


@enduml

PlantUML version 1.2021.15(Wed Dec 01 01:45:34 JST 2021)
(GPL source distribution)
Java Runtime: OpenJDK Runtime Environment
JVM: OpenJDK 64-Bit Server VM
Default Encoding: UTF-8
Language: ja
Country: JP
--></g></svg>