<?xml version="1.0" encoding="UTF-8" standalone="no"?><svg xmlns="http://www.w3.org/2000/svg" xmlns:xlink="http://www.w3.org/1999/xlink" contentScriptType="application/ecmascript" contentStyleType="text/css" height="403px" preserveAspectRatio="none" style="width:968px;height:403px;background:#FFFFFF;" version="1.1" viewBox="0 0 968 403" width="968px" zoomAndPan="magnify"><defs><filter height="300%" id="f1hrzjyjugsaqn" width="300%" x="-1" y="-1"><feGaussianBlur result="blurOut" stdDeviation="2.0"/><feColorMatrix in="blurOut" result="blurOut2" type="matrix" values="0 0 0 0 0 0 0 0 0 0 0 0 0 0 0 0 0 0 .4 0"/><feOffset dx="4.0" dy="4.0" in="blurOut2" result="blurOut3"/><feBlend in="SourceGraphic" in2="blurOut3" mode="normal"/></filter></defs><g><!--MD5=[5a0a8f4e922cf6bd2d52fbfc2b97f795]
cluster 大きい音--><polygon fill="#FFFFFF" filter="url(#f1hrzjyjugsaqn)" points="478,6,540,6,547,28.4883,951,28.4883,951,396.5,478,396.5,478,6" style="stroke:#000000;stroke-width:1.5;"/><line style="stroke:#000000;stroke-width:1.5;" x1="478" x2="547" y1="28.4883" y2="28.4883"/><text fill="#000000" font-family="sans-serif" font-size="14" font-weight="bold" lengthAdjust="spacing" textLength="56" x="482" y="21.5352">大きい音</text><!--MD5=[2fcadf310b3e89df624db556cfdd0c60]
cluster 大きい音.ex--><polygon fill="#FFFFFF" filter="url(#f1hrzjyjugsaqn)" points="780,49,802,49,809,71.4883,927,71.4883,927,148,780,148,780,49" style="stroke:#000000;stroke-width:1.5;"/><line style="stroke:#000000;stroke-width:1.5;" x1="780" x2="809" y1="71.4883" y2="71.4883"/><text fill="#000000" font-family="sans-serif" font-size="14" font-weight="bold" lengthAdjust="spacing" textLength="16" x="784" y="64.5352">ex</text><!--MD5=[4198137957cc50dc9a6b7a17eacabca5]
cluster 小さい音--><polygon fill="#FFFFFF" filter="url(#f1hrzjyjugsaqn)" points="16,6,78,6,85,28.4883,454,28.4883,454,396.5,16,396.5,16,6" style="stroke:#000000;stroke-width:1.5;"/><line style="stroke:#000000;stroke-width:1.5;" x1="16" x2="85" y1="28.4883" y2="28.4883"/><text fill="#000000" font-family="sans-serif" font-size="14" font-weight="bold" lengthAdjust="spacing" textLength="56" x="20" y="21.5352">小さい音</text><!--MD5=[a40c0810e8fbf2f986bcfa8b83143c2d]
cluster 小さい音.ex--><polygon fill="#FFFFFF" filter="url(#f1hrzjyjugsaqn)" points="283,49,305,49,312,71.4883,430,71.4883,430,275.5,283,275.5,283,49" style="stroke:#000000;stroke-width:1.5;"/><line style="stroke:#000000;stroke-width:1.5;" x1="283" x2="312" y1="71.4883" y2="71.4883"/><text fill="#000000" font-family="sans-serif" font-size="14" font-weight="bold" lengthAdjust="spacing" textLength="16" x="287" y="64.5352">ex</text><!--MD5=[f100e7a00883c0d9bd6879a2b574899b]
class 大きい音.形容詞の「な」--><rect codeLine="9" fill="#FEFECE" filter="url(#f1hrzjyjugsaqn)" height="60.9551" id="大きい音.形容詞の「な」" style="stroke:#A80036;stroke-width:1.5;" width="116" x="645" y="77.5"/><ellipse cx="660" cy="93.5" fill="#ADD1B2" rx="11" ry="11" style="stroke:#A80036;stroke-width:1.0;"/><path d="M662.4731,99.6431 Q661.8921,99.9419 661.2529,100.0913 Q660.6138,100.2407 659.9082,100.2407 Q657.4014,100.2407 656.0815,98.5889 Q654.7617,96.937 654.7617,93.8159 Q654.7617,90.6865 656.0815,89.0347 Q657.4014,87.3828 659.9082,87.3828 Q660.6138,87.3828 661.2612,87.5322 Q661.9087,87.6816 662.4731,87.9805 L662.4731,90.7031 Q661.8423,90.1221 661.2488,89.8523 Q660.6553,89.5825 660.0244,89.5825 Q658.6797,89.5825 657.9949,90.6492 Q657.3101,91.7158 657.3101,93.8159 Q657.3101,95.9077 657.9949,96.9744 Q658.6797,98.041 660.0244,98.041 Q660.6553,98.041 661.2488,97.7712 Q661.8423,97.5015 662.4731,96.9204 Z " fill="#000000"/><text fill="#000000" font-family="sans-serif" font-size="12" lengthAdjust="spacing" textLength="84" x="674" y="98.0352">形容詞の「な」</text><line style="stroke:#A80036;stroke-width:1.5;" x1="646" x2="760" y1="109.5" y2="109.5"/><line style="stroke:#A80036;stroke-width:1.5;" x1="646" x2="760" y1="117.5" y2="117.5"/><text fill="#000000" font-family="sans-serif" font-size="11" lengthAdjust="spacing" textLength="50" x="651" y="132.1348">ex)大きな</text><!--MD5=[61f0219b86efa05b8b7b71e5123140f4]
class 大きい音.大きな口の開き--><rect codeLine="13" fill="#FEFECE" filter="url(#f1hrzjyjugsaqn)" height="48" id="大きい音.大きな口の開き" style="stroke:#A80036;stroke-width:1.5;" width="116" x="494" y="84"/><ellipse cx="509" cy="100" fill="#ADD1B2" rx="11" ry="11" style="stroke:#A80036;stroke-width:1.0;"/><path d="M511.4731,106.1431 Q510.8921,106.4419 510.2529,106.5913 Q509.6138,106.7407 508.9082,106.7407 Q506.4014,106.7407 505.0815,105.0889 Q503.7617,103.437 503.7617,100.3159 Q503.7617,97.1865 505.0815,95.5347 Q506.4014,93.8828 508.9082,93.8828 Q509.6138,93.8828 510.2612,94.0322 Q510.9087,94.1816 511.4731,94.4805 L511.4731,97.2031 Q510.8423,96.6221 510.2488,96.3523 Q509.6553,96.0825 509.0244,96.0825 Q507.6797,96.0825 506.9949,97.1492 Q506.3101,98.2158 506.3101,100.3159 Q506.3101,102.4077 506.9949,103.4744 Q507.6797,104.541 509.0244,104.541 Q509.6553,104.541 510.2488,104.2712 Q510.8423,104.0015 511.4731,103.4204 Z " fill="#000000"/><text fill="#000000" font-family="sans-serif" font-size="12" lengthAdjust="spacing" textLength="84" x="523" y="104.5352">大きな口の開き</text><line style="stroke:#A80036;stroke-width:1.5;" x1="495" x2="609" y1="116" y2="116"/><line style="stroke:#A80036;stroke-width:1.5;" x1="495" x2="609" y1="124" y2="124"/><!--MD5=[30c4205eaef5c779cdedb3ce68b8cc04]
class 大きい音.a--><rect codeLine="17" fill="#FEFECE" filter="url(#f1hrzjyjugsaqn)" height="48" id="大きい音.a" style="stroke:#A80036;stroke-width:1.5;" width="39" x="634.5" y="211.5"/><ellipse cx="649.5" cy="227.5" fill="#ADD1B2" rx="11" ry="11" style="stroke:#A80036;stroke-width:1.0;"/><path d="M651.9731,233.6431 Q651.3921,233.9419 650.7529,234.0913 Q650.1138,234.2407 649.4082,234.2407 Q646.9014,234.2407 645.5815,232.5889 Q644.2617,230.937 644.2617,227.8159 Q644.2617,224.6865 645.5815,223.0347 Q646.9014,221.3828 649.4082,221.3828 Q650.1138,221.3828 650.7612,221.5322 Q651.4087,221.6816 651.9731,221.9805 L651.9731,224.7031 Q651.3423,224.1221 650.7488,223.8523 Q650.1553,223.5825 649.5244,223.5825 Q648.1797,223.5825 647.4949,224.6492 Q646.8101,225.7158 646.8101,227.8159 Q646.8101,229.9077 647.4949,230.9744 Q648.1797,232.041 649.5244,232.041 Q650.1553,232.041 650.7488,231.7712 Q651.3423,231.5015 651.9731,230.9204 Z " fill="#000000"/><text fill="#000000" font-family="sans-serif" font-size="12" lengthAdjust="spacing" textLength="7" x="663.5" y="232.0352">a</text><line style="stroke:#A80036;stroke-width:1.5;" x1="635.5" x2="672.5" y1="243.5" y2="243.5"/><line style="stroke:#A80036;stroke-width:1.5;" x1="635.5" x2="672.5" y1="251.5" y2="251.5"/><!--MD5=[28dcea68ee56935f481e64c4e50846fa]
class 大きい音.o--><rect codeLine="22" fill="#FEFECE" filter="url(#f1hrzjyjugsaqn)" height="48" id="大きい音.o" style="stroke:#A80036;stroke-width:1.5;" width="39" x="535.5" y="211.5"/><ellipse cx="550.5" cy="227.5" fill="#ADD1B2" rx="11" ry="11" style="stroke:#A80036;stroke-width:1.0;"/><path d="M552.9731,233.6431 Q552.3921,233.9419 551.7529,234.0913 Q551.1138,234.2407 550.4082,234.2407 Q547.9014,234.2407 546.5815,232.5889 Q545.2617,230.937 545.2617,227.8159 Q545.2617,224.6865 546.5815,223.0347 Q547.9014,221.3828 550.4082,221.3828 Q551.1138,221.3828 551.7612,221.5322 Q552.4087,221.6816 552.9731,221.9805 L552.9731,224.7031 Q552.3423,224.1221 551.7488,223.8523 Q551.1553,223.5825 550.5244,223.5825 Q549.1797,223.5825 548.4949,224.6492 Q547.8101,225.7158 547.8101,227.8159 Q547.8101,229.9077 548.4949,230.9744 Q549.1797,232.041 550.5244,232.041 Q551.1553,232.041 551.7488,231.7712 Q552.3423,231.5015 552.9731,230.9204 Z " fill="#000000"/><text fill="#000000" font-family="sans-serif" font-size="12" lengthAdjust="spacing" textLength="7" x="564.5" y="232.0352">o</text><line style="stroke:#A80036;stroke-width:1.5;" x1="536.5" x2="573.5" y1="243.5" y2="243.5"/><line style="stroke:#A80036;stroke-width:1.5;" x1="536.5" x2="573.5" y1="251.5" y2="251.5"/><!--MD5=[58bef93a1022028afb358905b5a5cf36]
class 大きい音.big_imagination--><rect codeLine="26" fill="#FEFECE" filter="url(#f1hrzjyjugsaqn)" height="48" id="大きい音.big_imagination" style="stroke:#A80036;stroke-width:1.5;" width="122" x="494" y="332.5"/><ellipse cx="509" cy="348.5" fill="#ADD1B2" rx="11" ry="11" style="stroke:#A80036;stroke-width:1.0;"/><path d="M511.4731,354.6431 Q510.8921,354.9419 510.2529,355.0913 Q509.6138,355.2407 508.9082,355.2407 Q506.4014,355.2407 505.0815,353.5889 Q503.7617,351.937 503.7617,348.8159 Q503.7617,345.6865 505.0815,344.0347 Q506.4014,342.3828 508.9082,342.3828 Q509.6138,342.3828 510.2612,342.5322 Q510.9087,342.6816 511.4731,342.9805 L511.4731,345.7031 Q510.8423,345.1221 510.2488,344.8523 Q509.6553,344.5825 509.0244,344.5825 Q507.6797,344.5825 506.9949,345.6492 Q506.3101,346.7158 506.3101,348.8159 Q506.3101,350.9077 506.9949,351.9744 Q507.6797,353.041 509.0244,353.041 Q509.6553,353.041 510.2488,352.7712 Q510.8423,352.5015 511.4731,351.9204 Z " fill="#000000"/><text fill="#000000" font-family="sans-serif" font-size="12" lengthAdjust="spacing" textLength="90" x="523" y="353.0352">big_imagination</text><line style="stroke:#A80036;stroke-width:1.5;" x1="495" x2="615" y1="364.5" y2="364.5"/><line style="stroke:#A80036;stroke-width:1.5;" x1="495" x2="615" y1="372.5" y2="372.5"/><!--MD5=[ca85313c846bf75ed202379a36f2a75a]
class 大きい音.威嚇--><rect codeLine="30" fill="#FEFECE" filter="url(#f1hrzjyjugsaqn)" height="48" id="大きい音.威嚇" style="stroke:#A80036;stroke-width:1.5;" width="56" x="651" y="332.5"/><ellipse cx="666" cy="348.5" fill="#ADD1B2" rx="11" ry="11" style="stroke:#A80036;stroke-width:1.0;"/><path d="M668.4731,354.6431 Q667.8921,354.9419 667.2529,355.0913 Q666.6138,355.2407 665.9082,355.2407 Q663.4014,355.2407 662.0815,353.5889 Q660.7617,351.937 660.7617,348.8159 Q660.7617,345.6865 662.0815,344.0347 Q663.4014,342.3828 665.9082,342.3828 Q666.6138,342.3828 667.2612,342.5322 Q667.9087,342.6816 668.4731,342.9805 L668.4731,345.7031 Q667.8423,345.1221 667.2488,344.8523 Q666.6553,344.5825 666.0244,344.5825 Q664.6797,344.5825 663.9949,345.6492 Q663.3101,346.7158 663.3101,348.8159 Q663.3101,350.9077 663.9949,351.9744 Q664.6797,353.041 666.0244,353.041 Q666.6553,353.041 667.2488,352.7712 Q667.8423,352.5015 668.4731,351.9204 Z " fill="#000000"/><text fill="#000000" font-family="sans-serif" font-size="12" lengthAdjust="spacing" textLength="24" x="680" y="353.0352">威嚇</text><line style="stroke:#A80036;stroke-width:1.5;" x1="652" x2="706" y1="364.5" y2="364.5"/><line style="stroke:#A80036;stroke-width:1.5;" x1="652" x2="706" y1="372.5" y2="372.5"/><!--MD5=[84897e55d0c0a66512360b12ff6fba0a]
class 大きい音.ex.3--><rect codeLine="4" fill="#FEFECE" filter="url(#f1hrzjyjugsaqn)" height="48" id="大きい音.ex.3" style="stroke:#A80036;stroke-width:1.5;" width="40" x="871" y="84"/><ellipse cx="886" cy="100" fill="#ADD1B2" rx="11" ry="11" style="stroke:#A80036;stroke-width:1.0;"/><path d="M888.4731,106.1431 Q887.8921,106.4419 887.2529,106.5913 Q886.6138,106.7407 885.9082,106.7407 Q883.4014,106.7407 882.0815,105.0889 Q880.7617,103.437 880.7617,100.3159 Q880.7617,97.1865 882.0815,95.5347 Q883.4014,93.8828 885.9082,93.8828 Q886.6138,93.8828 887.2612,94.0322 Q887.9087,94.1816 888.4731,94.4805 L888.4731,97.2031 Q887.8423,96.6221 887.2488,96.3523 Q886.6553,96.0825 886.0244,96.0825 Q884.6797,96.0825 883.9949,97.1492 Q883.3101,98.2158 883.3101,100.3159 Q883.3101,102.4077 883.9949,103.4744 Q884.6797,104.541 886.0244,104.541 Q886.6553,104.541 887.2488,104.2712 Q887.8423,104.0015 888.4731,103.4204 Z " fill="#000000"/><text fill="#000000" font-family="sans-serif" font-size="12" lengthAdjust="spacing" textLength="8" x="900" y="104.5352">3</text><line style="stroke:#A80036;stroke-width:1.5;" x1="872" x2="910" y1="116" y2="116"/><line style="stroke:#A80036;stroke-width:1.5;" x1="872" x2="910" y1="124" y2="124"/><!--MD5=[70c38aa930fac1b7e7a1941638b1d095]
class 大きい音.ex.4--><rect codeLine="5" fill="#FEFECE" filter="url(#f1hrzjyjugsaqn)" height="48" id="大きい音.ex.4" style="stroke:#A80036;stroke-width:1.5;" width="40" x="796" y="84"/><ellipse cx="811" cy="100" fill="#ADD1B2" rx="11" ry="11" style="stroke:#A80036;stroke-width:1.0;"/><path d="M813.4731,106.1431 Q812.8921,106.4419 812.2529,106.5913 Q811.6138,106.7407 810.9082,106.7407 Q808.4014,106.7407 807.0815,105.0889 Q805.7617,103.437 805.7617,100.3159 Q805.7617,97.1865 807.0815,95.5347 Q808.4014,93.8828 810.9082,93.8828 Q811.6138,93.8828 812.2612,94.0322 Q812.9087,94.1816 813.4731,94.4805 L813.4731,97.2031 Q812.8423,96.6221 812.2488,96.3523 Q811.6553,96.0825 811.0244,96.0825 Q809.6797,96.0825 808.9949,97.1492 Q808.3101,98.2158 808.3101,100.3159 Q808.3101,102.4077 808.9949,103.4744 Q809.6797,104.541 811.0244,104.541 Q811.6553,104.541 812.2488,104.2712 Q812.8423,104.0015 813.4731,103.4204 Z " fill="#000000"/><text fill="#000000" font-family="sans-serif" font-size="12" lengthAdjust="spacing" textLength="8" x="825" y="104.5352">4</text><line style="stroke:#A80036;stroke-width:1.5;" x1="797" x2="835" y1="116" y2="116"/><line style="stroke:#A80036;stroke-width:1.5;" x1="797" x2="835" y1="124" y2="124"/><!--MD5=[9d317b67637b48919f73f753aa9ce836]
class 小さい音.形容詞の「い」--><rect codeLine="48" fill="#FEFECE" filter="url(#f1hrzjyjugsaqn)" height="60.9551" id="小さい音.形容詞の「い」" style="stroke:#A80036;stroke-width:1.5;" width="116" x="148" y="77.5"/><ellipse cx="163" cy="93.5" fill="#ADD1B2" rx="11" ry="11" style="stroke:#A80036;stroke-width:1.0;"/><path d="M165.4731,99.6431 Q164.8921,99.9419 164.2529,100.0913 Q163.6138,100.2407 162.9082,100.2407 Q160.4014,100.2407 159.0815,98.5889 Q157.7617,96.937 157.7617,93.8159 Q157.7617,90.6865 159.0815,89.0347 Q160.4014,87.3828 162.9082,87.3828 Q163.6138,87.3828 164.2612,87.5322 Q164.9087,87.6816 165.4731,87.9805 L165.4731,90.7031 Q164.8423,90.1221 164.2488,89.8523 Q163.6553,89.5825 163.0244,89.5825 Q161.6797,89.5825 160.9949,90.6492 Q160.3101,91.7158 160.3101,93.8159 Q160.3101,95.9077 160.9949,96.9744 Q161.6797,98.041 163.0244,98.041 Q163.6553,98.041 164.2488,97.7712 Q164.8423,97.5015 165.4731,96.9204 Z " fill="#000000"/><text fill="#000000" font-family="sans-serif" font-size="12" lengthAdjust="spacing" textLength="84" x="177" y="98.0352">形容詞の「い」</text><line style="stroke:#A80036;stroke-width:1.5;" x1="149" x2="263" y1="109.5" y2="109.5"/><line style="stroke:#A80036;stroke-width:1.5;" x1="149" x2="263" y1="117.5" y2="117.5"/><text fill="#000000" font-family="sans-serif" font-size="11" lengthAdjust="spacing" textLength="50" x="154" y="132.1348">ex)小さい</text><!--MD5=[871b256e231b8e3e6664ccce3277209e]
class 小さい音.小さい口--><rect codeLine="51" fill="#FEFECE" filter="url(#f1hrzjyjugsaqn)" height="48" id="小さい音.小さい口" style="stroke:#A80036;stroke-width:1.5;" width="80" x="33" y="84"/><ellipse cx="48" cy="100" fill="#ADD1B2" rx="11" ry="11" style="stroke:#A80036;stroke-width:1.0;"/><path d="M50.4731,106.1431 Q49.8921,106.4419 49.2529,106.5913 Q48.6138,106.7407 47.9082,106.7407 Q45.4014,106.7407 44.0815,105.0889 Q42.7617,103.437 42.7617,100.3159 Q42.7617,97.1865 44.0815,95.5347 Q45.4014,93.8828 47.9082,93.8828 Q48.6138,93.8828 49.2612,94.0322 Q49.9087,94.1816 50.4731,94.4805 L50.4731,97.2031 Q49.8423,96.6221 49.2488,96.3523 Q48.6553,96.0825 48.0244,96.0825 Q46.6797,96.0825 45.9949,97.1492 Q45.3101,98.2158 45.3101,100.3159 Q45.3101,102.4077 45.9949,103.4744 Q46.6797,104.541 48.0244,104.541 Q48.6553,104.541 49.2488,104.2712 Q49.8423,104.0015 50.4731,103.4204 Z " fill="#000000"/><text fill="#000000" font-family="sans-serif" font-size="12" lengthAdjust="spacing" textLength="48" x="62" y="104.5352">小さい口</text><line style="stroke:#A80036;stroke-width:1.5;" x1="34" x2="112" y1="116" y2="116"/><line style="stroke:#A80036;stroke-width:1.5;" x1="34" x2="112" y1="124" y2="124"/><!--MD5=[f747a484557fc836b8bf0edc73087595]
class 小さい音.i--><rect codeLine="54" fill="#FEFECE" filter="url(#f1hrzjyjugsaqn)" height="48" id="小さい音.i" style="stroke:#A80036;stroke-width:1.5;" width="35" x="228.5" y="211.5"/><ellipse cx="243.5" cy="227.5" fill="#ADD1B2" rx="11" ry="11" style="stroke:#A80036;stroke-width:1.0;"/><path d="M245.9731,233.6431 Q245.3921,233.9419 244.7529,234.0913 Q244.1138,234.2407 243.4082,234.2407 Q240.9014,234.2407 239.5815,232.5889 Q238.2617,230.937 238.2617,227.8159 Q238.2617,224.6865 239.5815,223.0347 Q240.9014,221.3828 243.4082,221.3828 Q244.1138,221.3828 244.7612,221.5322 Q245.4087,221.6816 245.9731,221.9805 L245.9731,224.7031 Q245.3423,224.1221 244.7488,223.8523 Q244.1553,223.5825 243.5244,223.5825 Q242.1797,223.5825 241.4949,224.6492 Q240.8101,225.7158 240.8101,227.8159 Q240.8101,229.9077 241.4949,230.9744 Q242.1797,232.041 243.5244,232.041 Q244.1553,232.041 244.7488,231.7712 Q245.3423,231.5015 245.9731,230.9204 Z " fill="#000000"/><text fill="#000000" font-family="sans-serif" font-size="12" lengthAdjust="spacing" textLength="3" x="257.5" y="232.0352">i</text><line style="stroke:#A80036;stroke-width:1.5;" x1="229.5" x2="262.5" y1="243.5" y2="243.5"/><line style="stroke:#A80036;stroke-width:1.5;" x1="229.5" x2="262.5" y1="251.5" y2="251.5"/><!--MD5=[22032f5523016fe127e6dabccbb019a9]
class 小さい音.拗音語--><rect codeLine="61" fill="#FEFECE" filter="url(#f1hrzjyjugsaqn)" height="73.9102" id="小さい音.拗音語" style="stroke:#A80036;stroke-width:1.5;" width="161" x="32.5" y="198.5"/><ellipse cx="90.75" cy="214.5" fill="#ADD1B2" rx="11" ry="11" style="stroke:#A80036;stroke-width:1.0;"/><path d="M93.2231,220.6431 Q92.6421,220.9419 92.0029,221.0913 Q91.3638,221.2407 90.6582,221.2407 Q88.1514,221.2407 86.8315,219.5889 Q85.5117,217.937 85.5117,214.8159 Q85.5117,211.6865 86.8315,210.0347 Q88.1514,208.3828 90.6582,208.3828 Q91.3638,208.3828 92.0112,208.5322 Q92.6587,208.6816 93.2231,208.9805 L93.2231,211.7031 Q92.5923,211.1221 91.9988,210.8523 Q91.4053,210.5825 90.7744,210.5825 Q89.4297,210.5825 88.7449,211.6492 Q88.0601,212.7158 88.0601,214.8159 Q88.0601,216.9077 88.7449,217.9744 Q89.4297,219.041 90.7744,219.041 Q91.4053,219.041 91.9988,218.7712 Q92.5923,218.5015 93.2231,217.9204 Z " fill="#000000"/><text fill="#000000" font-family="sans-serif" font-size="12" lengthAdjust="spacing" textLength="36" x="111.25" y="219.0352">拗音語</text><line style="stroke:#A80036;stroke-width:1.5;" x1="33.5" x2="192.5" y1="230.5" y2="230.5"/><text fill="#000000" font-family="sans-serif" font-size="11" lengthAdjust="spacing" textLength="132" x="38.5" y="245.1348">赤ちゃんに対して使う言葉</text><line style="stroke:#A80036;stroke-width:1.5;" x1="33.5" x2="192.5" y1="251.4551" y2="251.4551"/><text fill="#000000" font-family="sans-serif" font-size="11" lengthAdjust="spacing" textLength="149" x="38.5" y="266.0898">ex)小さい「よ」や「ゆ」など</text><!--MD5=[d7c511f35e821b7d54a0474efb2ef67f]
class 小さい音.small_imagination--><rect codeLine="68" fill="#FEFECE" filter="url(#f1hrzjyjugsaqn)" height="48" id="小さい音.small_imagination" style="stroke:#A80036;stroke-width:1.5;" width="134" x="112" y="332.5"/><ellipse cx="127" cy="348.5" fill="#ADD1B2" rx="11" ry="11" style="stroke:#A80036;stroke-width:1.0;"/><path d="M129.4731,354.6431 Q128.8921,354.9419 128.2529,355.0913 Q127.6138,355.2407 126.9082,355.2407 Q124.4014,355.2407 123.0815,353.5889 Q121.7617,351.937 121.7617,348.8159 Q121.7617,345.6865 123.0815,344.0347 Q124.4014,342.3828 126.9082,342.3828 Q127.6138,342.3828 128.2612,342.5322 Q128.9087,342.6816 129.4731,342.9805 L129.4731,345.7031 Q128.8423,345.1221 128.2488,344.8523 Q127.6553,344.5825 127.0244,344.5825 Q125.6797,344.5825 124.9949,345.6492 Q124.3101,346.7158 124.3101,348.8159 Q124.3101,350.9077 124.9949,351.9744 Q125.6797,353.041 127.0244,353.041 Q127.6553,353.041 128.2488,352.7712 Q128.8423,352.5015 129.4731,351.9204 Z " fill="#000000"/><text fill="#000000" font-family="sans-serif" font-size="12" lengthAdjust="spacing" textLength="102" x="141" y="353.0352">small_imagination</text><line style="stroke:#A80036;stroke-width:1.5;" x1="113" x2="245" y1="364.5" y2="364.5"/><line style="stroke:#A80036;stroke-width:1.5;" x1="113" x2="245" y1="372.5" y2="372.5"/><!--MD5=[9400c856e99092fd47d0b5e206726f39]
class 小さい音.ex.1--><rect codeLine="40" fill="#FEFECE" filter="url(#f1hrzjyjugsaqn)" height="48" id="小さい音.ex.1" style="stroke:#A80036;stroke-width:1.5;" width="40" x="299" y="84"/><ellipse cx="314" cy="100" fill="#ADD1B2" rx="11" ry="11" style="stroke:#A80036;stroke-width:1.0;"/><path d="M316.4731,106.1431 Q315.8921,106.4419 315.2529,106.5913 Q314.6138,106.7407 313.9082,106.7407 Q311.4014,106.7407 310.0815,105.0889 Q308.7617,103.437 308.7617,100.3159 Q308.7617,97.1865 310.0815,95.5347 Q311.4014,93.8828 313.9082,93.8828 Q314.6138,93.8828 315.2612,94.0322 Q315.9087,94.1816 316.4731,94.4805 L316.4731,97.2031 Q315.8423,96.6221 315.2488,96.3523 Q314.6553,96.0825 314.0244,96.0825 Q312.6797,96.0825 311.9949,97.1492 Q311.3101,98.2158 311.3101,100.3159 Q311.3101,102.4077 311.9949,103.4744 Q312.6797,104.541 314.0244,104.541 Q314.6553,104.541 315.2488,104.2712 Q315.8423,104.0015 316.4731,103.4204 Z " fill="#000000"/><text fill="#000000" font-family="sans-serif" font-size="12" lengthAdjust="spacing" textLength="8" x="328" y="104.5352">1</text><line style="stroke:#A80036;stroke-width:1.5;" x1="300" x2="338" y1="116" y2="116"/><line style="stroke:#A80036;stroke-width:1.5;" x1="300" x2="338" y1="124" y2="124"/><!--MD5=[c707aefd9804a276ce9ba426cedc7d2b]
class 小さい音.ex.2--><rect codeLine="41" fill="#FEFECE" filter="url(#f1hrzjyjugsaqn)" height="48" id="小さい音.ex.2" style="stroke:#A80036;stroke-width:1.5;" width="40" x="374" y="84"/><ellipse cx="389" cy="100" fill="#ADD1B2" rx="11" ry="11" style="stroke:#A80036;stroke-width:1.0;"/><path d="M391.4731,106.1431 Q390.8921,106.4419 390.2529,106.5913 Q389.6138,106.7407 388.9082,106.7407 Q386.4014,106.7407 385.0815,105.0889 Q383.7617,103.437 383.7617,100.3159 Q383.7617,97.1865 385.0815,95.5347 Q386.4014,93.8828 388.9082,93.8828 Q389.6138,93.8828 390.2612,94.0322 Q390.9087,94.1816 391.4731,94.4805 L391.4731,97.2031 Q390.8423,96.6221 390.2488,96.3523 Q389.6553,96.0825 389.0244,96.0825 Q387.6797,96.0825 386.9949,97.1492 Q386.3101,98.2158 386.3101,100.3159 Q386.3101,102.4077 386.9949,103.4744 Q387.6797,104.541 389.0244,104.541 Q389.6553,104.541 390.2488,104.2712 Q390.8423,104.0015 391.4731,103.4204 Z " fill="#000000"/><text fill="#000000" font-family="sans-serif" font-size="12" lengthAdjust="spacing" textLength="8" x="403" y="104.5352">2</text><line style="stroke:#A80036;stroke-width:1.5;" x1="375" x2="413" y1="116" y2="116"/><line style="stroke:#A80036;stroke-width:1.5;" x1="375" x2="413" y1="124" y2="124"/><!--MD5=[4a597cecfb5600623a6119a26fbbd940]
class 小さい音.ex.9--><rect codeLine="43" fill="#FEFECE" filter="url(#f1hrzjyjugsaqn)" height="48" id="小さい音.ex.9" style="stroke:#A80036;stroke-width:1.5;" width="40" x="299" y="211.5"/><ellipse cx="314" cy="227.5" fill="#ADD1B2" rx="11" ry="11" style="stroke:#A80036;stroke-width:1.0;"/><path d="M316.4731,233.6431 Q315.8921,233.9419 315.2529,234.0913 Q314.6138,234.2407 313.9082,234.2407 Q311.4014,234.2407 310.0815,232.5889 Q308.7617,230.937 308.7617,227.8159 Q308.7617,224.6865 310.0815,223.0347 Q311.4014,221.3828 313.9082,221.3828 Q314.6138,221.3828 315.2612,221.5322 Q315.9087,221.6816 316.4731,221.9805 L316.4731,224.7031 Q315.8423,224.1221 315.2488,223.8523 Q314.6553,223.5825 314.0244,223.5825 Q312.6797,223.5825 311.9949,224.6492 Q311.3101,225.7158 311.3101,227.8159 Q311.3101,229.9077 311.9949,230.9744 Q312.6797,232.041 314.0244,232.041 Q314.6553,232.041 315.2488,231.7712 Q315.8423,231.5015 316.4731,230.9204 Z " fill="#000000"/><text fill="#000000" font-family="sans-serif" font-size="12" lengthAdjust="spacing" textLength="8" x="328" y="232.0352">9</text><line style="stroke:#A80036;stroke-width:1.5;" x1="300" x2="338" y1="243.5" y2="243.5"/><line style="stroke:#A80036;stroke-width:1.5;" x1="300" x2="338" y1="251.5" y2="251.5"/><!--MD5=[2f03824ee0b5dca7fbeac8842114cac4]
class 小さい音.ex.u--><rect codeLine="44" fill="#FEFECE" filter="url(#f1hrzjyjugsaqn)" height="48" id="小さい音.ex.u" style="stroke:#A80036;stroke-width:1.5;" width="39" x="374.5" y="211.5"/><ellipse cx="389.5" cy="227.5" fill="#ADD1B2" rx="11" ry="11" style="stroke:#A80036;stroke-width:1.0;"/><path d="M391.9731,233.6431 Q391.3921,233.9419 390.7529,234.0913 Q390.1138,234.2407 389.4082,234.2407 Q386.9014,234.2407 385.5815,232.5889 Q384.2617,230.937 384.2617,227.8159 Q384.2617,224.6865 385.5815,223.0347 Q386.9014,221.3828 389.4082,221.3828 Q390.1138,221.3828 390.7612,221.5322 Q391.4087,221.6816 391.9731,221.9805 L391.9731,224.7031 Q391.3423,224.1221 390.7488,223.8523 Q390.1553,223.5825 389.5244,223.5825 Q388.1797,223.5825 387.4949,224.6492 Q386.8101,225.7158 386.8101,227.8159 Q386.8101,229.9077 387.4949,230.9744 Q388.1797,232.041 389.5244,232.041 Q390.1553,232.041 390.7488,231.7712 Q391.3423,231.5015 391.9731,230.9204 Z " fill="#000000"/><text fill="#000000" font-family="sans-serif" font-size="12" lengthAdjust="spacing" textLength="7" x="403.5" y="232.0352">u</text><line style="stroke:#A80036;stroke-width:1.5;" x1="375.5" x2="412.5" y1="243.5" y2="243.5"/><line style="stroke:#A80036;stroke-width:1.5;" x1="375.5" x2="412.5" y1="251.5" y2="251.5"/><!--MD5=[b6fca060a87acbba148c33f3eb8c0f59]
link 大きい音.形容詞の「な」 to 大きい音.a--><path codeLine="19" d="M691.39,138.74 C683.37,159.28 672.78,186.4 664.92,206.54 " fill="none" id="大きい音.形容詞の「な」-to-大きい音.a" style="stroke:#A80036;stroke-width:1.0;"/><polygon fill="#A80036" points="663.08,211.24,670.0741,204.3059,664.895,206.5811,662.6198,201.4019,663.08,211.24" style="stroke:#A80036;stroke-width:1.0;"/><!--MD5=[01498bc27ab55f0e199495736cf83b5d]
link 大きい音.大きな口の開き to 大きい音.a--><path codeLine="20" d="M570.71,132.02 C587.93,153.2 613.48,184.65 631.74,207.12 " fill="none" id="大きい音.大きな口の開き-to-大きい音.a" style="stroke:#A80036;stroke-width:1.0;"/><polygon fill="#A80036" points="635.06,211.2,632.4891,201.6926,631.907,207.3194,626.2802,206.7373,635.06,211.2" style="stroke:#A80036;stroke-width:1.0;"/><!--MD5=[089a17a67d89bb63398a04352e9da9e2]
link 大きい音.大きな口の開き to 大きい音.o--><path codeLine="24" d="M552.55,132.02 C553.05,152.85 553.78,183.61 554.32,205.99 " fill="none" id="大きい音.大きな口の開き-to-大きい音.o" style="stroke:#A80036;stroke-width:1.0;"/><polygon fill="#A80036" points="554.44,211.2,558.2073,202.1002,554.3115,206.2017,550.21,202.3058,554.44,211.2" style="stroke:#A80036;stroke-width:1.0;"/><!--MD5=[b4c5eb13e66784bc2719fe02c36f9734]
link 大きい音.a to 大きい音.big_imagination--><path codeLine="27" d="M634.68,259.73 C618.32,279.38 594.86,307.58 577.63,328.29 " fill="none" id="大きい音.a-to-大きい音.big_imagination" style="stroke:#A80036;stroke-width:1.0;"/><polygon fill="#A80036" points="574.27,332.33,583.103,327.9735,577.4695,328.4877,576.9553,322.8543,574.27,332.33" style="stroke:#A80036;stroke-width:1.0;"/><!--MD5=[20200ce3b9bddd26ed356e01f328a4c0]
link 大きい音.o to 大きい音.big_imagination--><path codeLine="28" d="M555,259.73 C555,279.06 555,306.65 555,327.25 " fill="none" id="大きい音.o-to-大きい音.big_imagination" style="stroke:#A80036;stroke-width:1.0;"/><polygon fill="#A80036" points="555,332.33,559,323.33,555,327.33,551,323.33,555,332.33" style="stroke:#A80036;stroke-width:1.0;"/><!--MD5=[fa79de77857fe45ce3fc6d1b343b3195]
link 大きい音.a to 大きい音.威嚇--><path codeLine="31" d="M658.88,259.73 C662.94,279.06 668.74,306.65 673.07,327.25 " fill="none" id="大きい音.a-to-大きい音.威嚇" style="stroke:#A80036;stroke-width:1.0;"/><polygon fill="#A80036" points="674.13,332.33,676.1958,322.7002,673.1028,327.4366,668.3664,324.3437,674.13,332.33" style="stroke:#A80036;stroke-width:1.0;"/><!--MD5=[757c900cfa018b9c9626bc68ffdbda75]
link 大きい音.o to 大きい音.威嚇--><path codeLine="32" d="M574.65,255.36 C595.26,275.14 627.84,306.4 651.11,328.73 " fill="none" id="大きい音.o-to-大きい音.威嚇" style="stroke:#A80036;stroke-width:1.0;"/><polygon fill="#A80036" points="654.76,332.24,651.0399,323.1207,651.1539,328.7765,645.4982,328.8905,654.76,332.24" style="stroke:#A80036;stroke-width:1.0;"/><!--MD5=[39d59c705e887a6b23834dc2dc3b86d4]
link 小さい音.形容詞の「い」 to 小さい音.i--><path codeLine="55" d="M215.48,138.74 C222,159.19 230.6,186.17 237.01,206.28 " fill="none" id="小さい音.形容詞の「い」-to-小さい音.i" style="stroke:#A80036;stroke-width:1.0;"/><polygon fill="#A80036" points="238.59,211.24,239.6801,201.4517,237.0775,206.4742,232.0549,203.8716,238.59,211.24" style="stroke:#A80036;stroke-width:1.0;"/><!--MD5=[cd156523c643553a1b3b7bb4059c9286]
link 小さい音.小さい口 to 小さい音.i--><path codeLine="56" d="M98.8,132.18 C108.28,140.18 119.32,148.9 130,156 C163.86,178.5 178.42,174.18 211,198.5 C215.6,201.93 220.15,205.98 224.37,210.1 " fill="none" id="小さい音.小さい口-to-小さい音.i" style="stroke:#A80036;stroke-width:1.0;"/><polygon fill="#A80036" points="228.14,213.89,224.6045,204.6976,224.6045,210.3545,218.9476,210.3545,228.14,213.89" style="stroke:#A80036;stroke-width:1.0;"/><!--MD5=[60106c5d331a6fef2d95fff1f6a186bd]
link 小さい音.小さい口 to 小さい音.拗音語--><path codeLine="65" d="M80.34,132.02 C85.81,149.18 93.43,173.08 99.93,193.49 " fill="none" id="小さい音.小さい口-to-小さい音.拗音語" style="stroke:#A80036;stroke-width:1.0;"/><polygon fill="#A80036" points="101.47,198.32,102.5601,188.5317,99.9575,193.5542,94.9349,190.9516,101.47,198.32" style="stroke:#A80036;stroke-width:1.0;"/><!--MD5=[bae10b46602d29ff7783718af82aa6a0]
link 小さい音.i to 小さい音.small_imagination--><path codeLine="69" d="M232.92,259.73 C221.95,279.22 206.24,307.11 194.61,327.77 " fill="none" id="小さい音.i-to-小さい音.small_imagination" style="stroke:#A80036;stroke-width:1.0;"/><polygon fill="#A80036" points="192.04,332.33,199.9304,326.4358,194.4852,327.9687,192.9523,322.5235,192.04,332.33" style="stroke:#A80036;stroke-width:1.0;"/><!--MD5=[789d9c500868ff1f7d9158171a97f093]
link 小さい音.拗音語 to 小さい音.small_imagination--><path codeLine="70" d="M132.98,272.53 C142.83,290.29 154.52,311.37 163.66,327.83 " fill="none" id="小さい音.拗音語-to-小さい音.small_imagination" style="stroke:#A80036;stroke-width:1.0;"/><polygon fill="#A80036" points="166.16,332.35,165.2858,322.54,163.7318,327.9792,158.2926,326.4252,166.16,332.35" style="stroke:#A80036;stroke-width:1.0;"/><!--MD5=[060d76aa4bb0992ee3878a19486b3208]
link 小さい音.ex.1 to 小さい音.ex.2--><!--MD5=[ae5aefbd03d59b1c6645f1c0abf67214]
link 小さい音.ex.1 to 小さい音.ex.9--><!--MD5=[a5f82d900cbb54e420632931ae6be5a8]
link 小さい音.ex.9 to 小さい音.ex.u--><!--MD5=[7fc6860f4b04576c0fd9f420827c1ff7]
@startuml size

namespace 大きい音 {
    namespace ex {
    class 3
    class 4
    }
    
    
    class "形容詞の「な」" {
        ex)大きな
        }
    
    class "大きな口の開き" {
        
    }
    
    class a {
    }
    "形容詞の「な」" - -> a
    "大きな口の開き" - -> a

    class o {
    }
    "大きな口の開き" - -> o

    class big_imagination
    a - -> big_imagination
    o - -> big_imagination

    class "威嚇"
    a - -> "威嚇"
    o - -> "威嚇"
}



namespace 小さい音 {
    
    namespace ex {
    class 1
    class 2
    
    class 9
      class u
      
        }
    
    class "形容詞の「い」" {
        ex)小さい
        }
        class "小さい口" {
        
        }
    class i {}
    "形容詞の「い」" - -> i
    "小さい口" - -> i




    class "拗音語" {
        赤ちゃんに対して使う言葉
        ex)小さい「よ」や「ゆ」など
    }
    "小さい口" - -> "拗音語"


    class small_imagination
    i - -> small_imagination
    "拗音語" - -> small_imagination
  
}


@enduml

PlantUML version 1.2021.15(Wed Dec 01 01:45:34 JST 2021)
(GPL source distribution)
Java Runtime: OpenJDK Runtime Environment
JVM: OpenJDK 64-Bit Server VM
Default Encoding: UTF-8
Language: ja
Country: JP
--></g></svg>