<?xml version="1.0" encoding="UTF-8" standalone="no"?><svg xmlns="http://www.w3.org/2000/svg" xmlns:xlink="http://www.w3.org/1999/xlink" contentScriptType="application/ecmascript" contentStyleType="text/css" height="384px" preserveAspectRatio="none" style="width:522px;height:384px;background:#FFFFFF;" version="1.1" viewBox="0 0 522 384" width="522px" zoomAndPan="magnify"><defs><filter height="300%" id="fgp9ucd2180fx" width="300%" x="-1" y="-1"><feGaussianBlur result="blurOut" stdDeviation="2.0"/><feColorMatrix in="blurOut" result="blurOut2" type="matrix" values="0 0 0 0 0 0 0 0 0 0 0 0 0 0 0 0 0 0 .4 0"/><feOffset dx="4.0" dy="4.0" in="blurOut2" result="blurOut3"/><feBlend in="SourceGraphic" in2="blurOut3" mode="normal"/></filter></defs><g><!--MD5=[7cbe19e9d05dfc6f3f78d959446d7437]
cluster 赤子イメージ--><polygon fill="#FFFFFF" filter="url(#fgp9ucd2180fx)" points="16,6,106,6,113,28.4883,505,28.4883,505,377,16,377,16,6" style="stroke:#000000;stroke-width:1.5;"/><line style="stroke:#000000;stroke-width:1.5;" x1="16" x2="113" y1="28.4883" y2="28.4883"/><text fill="#000000" font-family="sans-serif" font-size="14" font-weight="bold" lengthAdjust="spacing" textLength="84" x="20" y="21.5352">赤子イメージ</text><!--MD5=[cc2acd6925c38f2b1ea42fccb8a349a4]
cluster 赤子イメージ.ex--><polygon fill="#FFFFFF" filter="url(#fgp9ucd2180fx)" points="170,49,192,49,199,71.4883,481,71.4883,481,148,170,148,170,49" style="stroke:#000000;stroke-width:1.5;"/><line style="stroke:#000000;stroke-width:1.5;" x1="170" x2="199" y1="71.4883" y2="71.4883"/><text fill="#000000" font-family="sans-serif" font-size="14" font-weight="bold" lengthAdjust="spacing" textLength="16" x="174" y="64.5352">ex</text><!--MD5=[fae2c351cf649bdfe00195d6d1587923]
class 赤子イメージ.p--><rect codeLine="8" fill="#FEFECE" filter="url(#fgp9ucd2180fx)" height="48" id="赤子イメージ.p" style="stroke:#A80036;stroke-width:1.5;" width="40" x="111" y="84"/><ellipse cx="126" cy="100" fill="#ADD1B2" rx="11" ry="11" style="stroke:#A80036;stroke-width:1.0;"/><path d="M128.4731,106.1431 Q127.8921,106.4419 127.2529,106.5913 Q126.6138,106.7407 125.9082,106.7407 Q123.4014,106.7407 122.0815,105.0889 Q120.7617,103.437 120.7617,100.3159 Q120.7617,97.1865 122.0815,95.5347 Q123.4014,93.8828 125.9082,93.8828 Q126.6138,93.8828 127.2612,94.0322 Q127.9087,94.1816 128.4731,94.4805 L128.4731,97.2031 Q127.8423,96.6221 127.2488,96.3523 Q126.6553,96.0825 126.0244,96.0825 Q124.6797,96.0825 123.9949,97.1492 Q123.3101,98.2158 123.3101,100.3159 Q123.3101,102.4077 123.9949,103.4744 Q124.6797,104.541 126.0244,104.541 Q126.6553,104.541 127.2488,104.2712 Q127.8423,104.0015 128.4731,103.4204 Z " fill="#000000"/><text fill="#000000" font-family="sans-serif" font-size="12" lengthAdjust="spacing" textLength="8" x="140" y="104.5352">p</text><line style="stroke:#A80036;stroke-width:1.5;" x1="112" x2="150" y1="116" y2="116"/><line style="stroke:#A80036;stroke-width:1.5;" x1="112" x2="150" y1="124" y2="124"/><!--MD5=[8259bd580c024203cb294039bde389b8]
class 赤子イメージ.m--><rect codeLine="9" fill="#FEFECE" filter="url(#fgp9ucd2180fx)" height="48" id="赤子イメージ.m" style="stroke:#A80036;stroke-width:1.5;" width="43" x="32.5" y="84"/><ellipse cx="47.5" cy="100" fill="#ADD1B2" rx="11" ry="11" style="stroke:#A80036;stroke-width:1.0;"/><path d="M49.9731,106.1431 Q49.3921,106.4419 48.7529,106.5913 Q48.1138,106.7407 47.4082,106.7407 Q44.9014,106.7407 43.5815,105.0889 Q42.2617,103.437 42.2617,100.3159 Q42.2617,97.1865 43.5815,95.5347 Q44.9014,93.8828 47.4082,93.8828 Q48.1138,93.8828 48.7612,94.0322 Q49.4087,94.1816 49.9731,94.4805 L49.9731,97.2031 Q49.3423,96.6221 48.7488,96.3523 Q48.1553,96.0825 47.5244,96.0825 Q46.1797,96.0825 45.4949,97.1492 Q44.8101,98.2158 44.8101,100.3159 Q44.8101,102.4077 45.4949,103.4744 Q46.1797,104.541 47.5244,104.541 Q48.1553,104.541 48.7488,104.2712 Q49.3423,104.0015 49.9731,103.4204 Z " fill="#000000"/><text fill="#000000" font-family="sans-serif" font-size="12" lengthAdjust="spacing" textLength="11" x="61.5" y="104.5352">m</text><line style="stroke:#A80036;stroke-width:1.5;" x1="33.5" x2="74.5" y1="116" y2="116"/><line style="stroke:#A80036;stroke-width:1.5;" x1="33.5" x2="74.5" y1="124" y2="124"/><!--MD5=[d1a99cda2a7076d43cf7a416d0d3c21e]
class 赤子イメージ.両唇音--><rect codeLine="11" fill="#FEFECE" filter="url(#fgp9ucd2180fx)" height="60.9551" id="赤子イメージ.両唇音" style="stroke:#A80036;stroke-width:1.5;" width="144" x="47" y="192"/><ellipse cx="96.75" cy="208" fill="#ADD1B2" rx="11" ry="11" style="stroke:#A80036;stroke-width:1.0;"/><path d="M99.2231,214.1431 Q98.6421,214.4419 98.0029,214.5913 Q97.3638,214.7407 96.6582,214.7407 Q94.1514,214.7407 92.8315,213.0889 Q91.5117,211.437 91.5117,208.3159 Q91.5117,205.1865 92.8315,203.5347 Q94.1514,201.8828 96.6582,201.8828 Q97.3638,201.8828 98.0112,202.0322 Q98.6587,202.1816 99.2231,202.4805 L99.2231,205.2031 Q98.5923,204.6221 97.9988,204.3523 Q97.4053,204.0825 96.7744,204.0825 Q95.4297,204.0825 94.7449,205.1492 Q94.0601,206.2158 94.0601,208.3159 Q94.0601,210.4077 94.7449,211.4744 Q95.4297,212.541 96.7744,212.541 Q97.4053,212.541 97.9988,212.2712 Q98.5923,212.0015 99.2231,211.4204 Z " fill="#000000"/><text fill="#000000" font-family="sans-serif" font-size="12" lengthAdjust="spacing" textLength="36" x="117.25" y="212.5352">両唇音</text><line style="stroke:#A80036;stroke-width:1.5;" x1="48" x2="190" y1="224" y2="224"/><text fill="#000000" font-family="sans-serif" font-size="11" lengthAdjust="spacing" textLength="132" x="53" y="238.6348">発音するときに唇を閉じる</text><line style="stroke:#A80036;stroke-width:1.5;" x1="48" x2="190" y1="244.9551" y2="244.9551"/><!--MD5=[1e669d85e90320ab539956ca8512d2a4]
class 赤子イメージ.赤ちゃんグッズに多い--><rect codeLine="17" fill="#FEFECE" filter="url(#fgp9ucd2180fx)" height="48" id="赤子イメージ.赤ちゃんグッズに多い" style="stroke:#A80036;stroke-width:1.5;" width="152" x="43" y="313"/><ellipse cx="58" cy="329" fill="#ADD1B2" rx="11" ry="11" style="stroke:#A80036;stroke-width:1.0;"/><path d="M60.4731,335.1431 Q59.8921,335.4419 59.2529,335.5913 Q58.6138,335.7407 57.9082,335.7407 Q55.4014,335.7407 54.0815,334.0889 Q52.7617,332.437 52.7617,329.3159 Q52.7617,326.1865 54.0815,324.5347 Q55.4014,322.8828 57.9082,322.8828 Q58.6138,322.8828 59.2612,323.0322 Q59.9087,323.1816 60.4731,323.4805 L60.4731,326.2031 Q59.8423,325.6221 59.2488,325.3523 Q58.6553,325.0825 58.0244,325.0825 Q56.6797,325.0825 55.9949,326.1492 Q55.3101,327.2158 55.3101,329.3159 Q55.3101,331.4077 55.9949,332.4744 Q56.6797,333.541 58.0244,333.541 Q58.6553,333.541 59.2488,333.2712 Q59.8423,333.0015 60.4731,332.4204 Z " fill="#000000"/><text fill="#000000" font-family="sans-serif" font-size="12" lengthAdjust="spacing" textLength="120" x="72" y="333.5352">赤ちゃんグッズに多い</text><line style="stroke:#A80036;stroke-width:1.5;" x1="44" x2="194" y1="345" y2="345"/><line style="stroke:#A80036;stroke-width:1.5;" x1="44" x2="194" y1="353" y2="353"/><!--MD5=[04dc23e216a702b32f5e0e6e8fd32402]
class 赤子イメージ.ex.マーミーポコパンツ--><rect codeLine="5" fill="#FEFECE" filter="url(#fgp9ucd2180fx)" height="48" id="赤子イメージ.ex.マーミーポコパンツ" style="stroke:#A80036;stroke-width:1.5;" width="140" x="325" y="84"/><ellipse cx="340" cy="100" fill="#ADD1B2" rx="11" ry="11" style="stroke:#A80036;stroke-width:1.0;"/><path d="M342.4731,106.1431 Q341.8921,106.4419 341.2529,106.5913 Q340.6138,106.7407 339.9082,106.7407 Q337.4014,106.7407 336.0815,105.0889 Q334.7617,103.437 334.7617,100.3159 Q334.7617,97.1865 336.0815,95.5347 Q337.4014,93.8828 339.9082,93.8828 Q340.6138,93.8828 341.2612,94.0322 Q341.9087,94.1816 342.4731,94.4805 L342.4731,97.2031 Q341.8423,96.6221 341.2488,96.3523 Q340.6553,96.0825 340.0244,96.0825 Q338.6797,96.0825 337.9949,97.1492 Q337.3101,98.2158 337.3101,100.3159 Q337.3101,102.4077 337.9949,103.4744 Q338.6797,104.541 340.0244,104.541 Q340.6553,104.541 341.2488,104.2712 Q341.8423,104.0015 342.4731,103.4204 Z " fill="#000000"/><text fill="#000000" font-family="sans-serif" font-size="12" lengthAdjust="spacing" textLength="108" x="354" y="104.5352">マーミーポコパンツ</text><line style="stroke:#A80036;stroke-width:1.5;" x1="326" x2="464" y1="116" y2="116"/><line style="stroke:#A80036;stroke-width:1.5;" x1="326" x2="464" y1="124" y2="124"/><!--MD5=[3b4099c1f1dd3878ea57283484ed1b36]
class 赤子イメージ.ex.ムーミーマン--><rect codeLine="6" fill="#FEFECE" filter="url(#fgp9ucd2180fx)" height="48" id="赤子イメージ.ex.ムーミーマン" style="stroke:#A80036;stroke-width:1.5;" width="104" x="186" y="84"/><ellipse cx="201" cy="100" fill="#ADD1B2" rx="11" ry="11" style="stroke:#A80036;stroke-width:1.0;"/><path d="M203.4731,106.1431 Q202.8921,106.4419 202.2529,106.5913 Q201.6138,106.7407 200.9082,106.7407 Q198.4014,106.7407 197.0815,105.0889 Q195.7617,103.437 195.7617,100.3159 Q195.7617,97.1865 197.0815,95.5347 Q198.4014,93.8828 200.9082,93.8828 Q201.6138,93.8828 202.2612,94.0322 Q202.9087,94.1816 203.4731,94.4805 L203.4731,97.2031 Q202.8423,96.6221 202.2488,96.3523 Q201.6553,96.0825 201.0244,96.0825 Q199.6797,96.0825 198.9949,97.1492 Q198.3101,98.2158 198.3101,100.3159 Q198.3101,102.4077 198.9949,103.4744 Q199.6797,104.541 201.0244,104.541 Q201.6553,104.541 202.2488,104.2712 Q202.8423,104.0015 203.4731,103.4204 Z " fill="#000000"/><text fill="#000000" font-family="sans-serif" font-size="12" lengthAdjust="spacing" textLength="72" x="215" y="104.5352">ムーミーマン</text><line style="stroke:#A80036;stroke-width:1.5;" x1="187" x2="289" y1="116" y2="116"/><line style="stroke:#A80036;stroke-width:1.5;" x1="187" x2="289" y1="124" y2="124"/><!--MD5=[391329531bc5e4ab3e9cfcd6d168d55e]
link 赤子イメージ.p to 赤子イメージ.両唇音--><path codeLine="14" d="M128.54,132.04 C126.88,147.65 124.64,168.58 122.76,186.27 " fill="none" id="赤子イメージ.p-to-赤子イメージ.両唇音" style="stroke:#A80036;stroke-width:1.0;"/><polygon fill="#A80036" points="122.18,191.65,127.1091,183.1233,122.7086,186.678,119.154,182.2775,122.18,191.65" style="stroke:#A80036;stroke-width:1.0;"/><!--MD5=[95de04fd4340b3daa77bf9968e8ca9c8]
link 赤子イメージ.m to 赤子イメージ.両唇音--><path codeLine="15" d="M67.31,132.04 C76.49,147.92 88.84,169.31 99.17,187.19 " fill="none" id="赤子イメージ.m-to-赤子イメージ.両唇音" style="stroke:#A80036;stroke-width:1.0;"/><polygon fill="#A80036" points="101.75,191.65,100.6884,181.8585,99.2386,187.3265,93.7707,185.8767,101.75,191.65" style="stroke:#A80036;stroke-width:1.0;"/><!--MD5=[25c3f85952e385a2cd85a23465859e56]
link 赤子イメージ.両唇音 to 赤子イメージ.赤ちゃんグッズに多い--><path codeLine="19" d="M119,253.06 C119,269.93 119,290.98 119,307.65 " fill="none" id="赤子イメージ.両唇音-to-赤子イメージ.赤ちゃんグッズに多い" style="stroke:#A80036;stroke-width:1.0;"/><polygon fill="#A80036" points="119,312.67,123,303.67,119,307.67,115,303.67,119,312.67" style="stroke:#A80036;stroke-width:1.0;"/><!--MD5=[47a068a5508c2714577bfda3640d03a3]
@startuml baby


namespace 赤子イメージ {
    namespace ex {
        class マーミーポコパンツ
        class ムーミーマン
    }
    class p
    class m
    
    class 両唇音 {
        発音するときに唇を閉じる
    }
    p - -> 両唇音
    m - -> 両唇音

    class 赤ちゃんグッズに多い {
    }
    両唇音 - -> 赤ちゃんグッズに多い
}




@enduml

PlantUML version 1.2021.15(Wed Dec 01 01:45:34 JST 2021)
(GPL source distribution)
Java Runtime: OpenJDK Runtime Environment
JVM: OpenJDK 64-Bit Server VM
Default Encoding: UTF-8
Language: ja
Country: JP
--></g></svg>