<?xml version="1.0" encoding="UTF-8" standalone="no"?><svg xmlns="http://www.w3.org/2000/svg" xmlns:xlink="http://www.w3.org/1999/xlink" contentScriptType="application/ecmascript" contentStyleType="text/css" height="371px" preserveAspectRatio="none" style="width:456px;height:371px;background:#FFFFFF;" version="1.1" viewBox="0 0 456 371" width="456px" zoomAndPan="magnify"><defs><filter height="300%" id="ff5uopothacyq" width="300%" x="-1" y="-1"><feGaussianBlur result="blurOut" stdDeviation="2.0"/><feColorMatrix in="blurOut" result="blurOut2" type="matrix" values="0 0 0 0 0 0 0 0 0 0 0 0 0 0 0 0 0 0 .4 0"/><feOffset dx="4.0" dy="4.0" in="blurOut2" result="blurOut3"/><feBlend in="SourceGraphic" in2="blurOut3" mode="normal"/></filter></defs><g><!--MD5=[7cbe19e9d05dfc6f3f78d959446d7437]
cluster 赤子イメージ--><polygon fill="#FFFFFF" filter="url(#ff5uopothacyq)" points="16,6,106,6,113,28.4883,439,28.4883,439,364,16,364,16,6" style="stroke:#000000;stroke-width:1.5;"/><line style="stroke:#000000;stroke-width:1.5;" x1="16" x2="113" y1="28.4883" y2="28.4883"/><text fill="#000000" font-family="sans-serif" font-size="14" font-weight="bold" lengthAdjust="spacing" textLength="84" x="20" y="21.5352">赤子イメージ</text><!--MD5=[cc2acd6925c38f2b1ea42fccb8a349a4]
cluster 赤子イメージ.ex--><polygon fill="#FFFFFF" filter="url(#ff5uopothacyq)" points="272,49,294,49,301,71.4883,415,71.4883,415,256,272,256,272,49" style="stroke:#000000;stroke-width:1.5;"/><line style="stroke:#000000;stroke-width:1.5;" x1="272" x2="301" y1="71.4883" y2="71.4883"/><text fill="#000000" font-family="sans-serif" font-size="14" font-weight="bold" lengthAdjust="spacing" textLength="16" x="276" y="64.5352">ex</text><!--MD5=[8f04ad46404fc2e9b30b36dba2622cc0]
class 赤子イメージ.無性摩擦音--><rect codeLine="9" fill="#FEFECE" filter="url(#ff5uopothacyq)" height="48" id="赤子イメージ.無性摩擦音" style="stroke:#A80036;stroke-width:1.5;" width="92" x="98" y="84"/><ellipse cx="113" cy="100" fill="#ADD1B2" rx="11" ry="11" style="stroke:#A80036;stroke-width:1.0;"/><path d="M115.4731,106.1431 Q114.8921,106.4419 114.2529,106.5913 Q113.6138,106.7407 112.9082,106.7407 Q110.4014,106.7407 109.0815,105.0889 Q107.7617,103.437 107.7617,100.3159 Q107.7617,97.1865 109.0815,95.5347 Q110.4014,93.8828 112.9082,93.8828 Q113.6138,93.8828 114.2612,94.0322 Q114.9087,94.1816 115.4731,94.4805 L115.4731,97.2031 Q114.8423,96.6221 114.2488,96.3523 Q113.6553,96.0825 113.0244,96.0825 Q111.6797,96.0825 110.9949,97.1492 Q110.3101,98.2158 110.3101,100.3159 Q110.3101,102.4077 110.9949,103.4744 Q111.6797,104.541 113.0244,104.541 Q113.6553,104.541 114.2488,104.2712 Q114.8423,104.0015 115.4731,103.4204 Z " fill="#000000"/><text fill="#000000" font-family="sans-serif" font-size="12" lengthAdjust="spacing" textLength="60" x="127" y="104.5352">無性摩擦音</text><line style="stroke:#A80036;stroke-width:1.5;" x1="99" x2="189" y1="116" y2="116"/><line style="stroke:#A80036;stroke-width:1.5;" x1="99" x2="189" y1="124" y2="124"/><!--MD5=[dc9541537e5204316829a7318af61e62]
class 赤子イメージ.鼻から息が出て行くように発音する--><rect codeLine="11" fill="#FEFECE" filter="url(#ff5uopothacyq)" height="48" id="赤子イメージ.鼻から息が出て行くように発音する" style="stroke:#A80036;stroke-width:1.5;" width="224" x="32" y="192"/><ellipse cx="47" cy="208" fill="#ADD1B2" rx="11" ry="11" style="stroke:#A80036;stroke-width:1.0;"/><path d="M49.4731,214.1431 Q48.8921,214.4419 48.2529,214.5913 Q47.6138,214.7407 46.9082,214.7407 Q44.4014,214.7407 43.0815,213.0889 Q41.7617,211.437 41.7617,208.3159 Q41.7617,205.1865 43.0815,203.5347 Q44.4014,201.8828 46.9082,201.8828 Q47.6138,201.8828 48.2612,202.0322 Q48.9087,202.1816 49.4731,202.4805 L49.4731,205.2031 Q48.8423,204.6221 48.2488,204.3523 Q47.6553,204.0825 47.0244,204.0825 Q45.6797,204.0825 44.9949,205.1492 Q44.3101,206.2158 44.3101,208.3159 Q44.3101,210.4077 44.9949,211.4744 Q45.6797,212.541 47.0244,212.541 Q47.6553,212.541 48.2488,212.2712 Q48.8423,212.0015 49.4731,211.4204 Z " fill="#000000"/><text fill="#000000" font-family="sans-serif" font-size="12" lengthAdjust="spacing" textLength="192" x="61" y="212.5352">鼻から息が出て行くように発音する</text><line style="stroke:#A80036;stroke-width:1.5;" x1="33" x2="255" y1="224" y2="224"/><line style="stroke:#A80036;stroke-width:1.5;" x1="33" x2="255" y1="232" y2="232"/><!--MD5=[5816354cc2df124374a9b9fb0dc43a2a]
class 赤子イメージ.流れるイメージ--><rect codeLine="14" fill="#FEFECE" filter="url(#ff5uopothacyq)" height="48" id="赤子イメージ.流れるイメージ" style="stroke:#A80036;stroke-width:1.5;" width="116" x="86" y="300"/><ellipse cx="101" cy="316" fill="#ADD1B2" rx="11" ry="11" style="stroke:#A80036;stroke-width:1.0;"/><path d="M103.4731,322.1431 Q102.8921,322.4419 102.2529,322.5913 Q101.6138,322.7407 100.9082,322.7407 Q98.4014,322.7407 97.0815,321.0889 Q95.7617,319.437 95.7617,316.3159 Q95.7617,313.1865 97.0815,311.5347 Q98.4014,309.8828 100.9082,309.8828 Q101.6138,309.8828 102.2612,310.0322 Q102.9087,310.1816 103.4731,310.4805 L103.4731,313.2031 Q102.8423,312.6221 102.2488,312.3523 Q101.6553,312.0825 101.0244,312.0825 Q99.6797,312.0825 98.9949,313.1492 Q98.3101,314.2158 98.3101,316.3159 Q98.3101,318.4077 98.9949,319.4744 Q99.6797,320.541 101.0244,320.541 Q101.6553,320.541 102.2488,320.2712 Q102.8423,320.0015 103.4731,319.4204 Z " fill="#000000"/><text fill="#000000" font-family="sans-serif" font-size="12" lengthAdjust="spacing" textLength="84" x="115" y="320.5352">流れるイメージ</text><line style="stroke:#A80036;stroke-width:1.5;" x1="87" x2="201" y1="332" y2="332"/><line style="stroke:#A80036;stroke-width:1.5;" x1="87" x2="201" y1="340" y2="340"/><!--MD5=[db6c5dc5cbb5de91a273dd2d4a1832d5]
class 赤子イメージ.ex.h--><rect codeLine="5" fill="#FEFECE" filter="url(#ff5uopothacyq)" height="48" id="赤子イメージ.ex.h" style="stroke:#A80036;stroke-width:1.5;" width="39" x="288.5" y="84"/><ellipse cx="303.5" cy="100" fill="#ADD1B2" rx="11" ry="11" style="stroke:#A80036;stroke-width:1.0;"/><path d="M305.9731,106.1431 Q305.3921,106.4419 304.7529,106.5913 Q304.1138,106.7407 303.4082,106.7407 Q300.9014,106.7407 299.5815,105.0889 Q298.2617,103.437 298.2617,100.3159 Q298.2617,97.1865 299.5815,95.5347 Q300.9014,93.8828 303.4082,93.8828 Q304.1138,93.8828 304.7612,94.0322 Q305.4087,94.1816 305.9731,94.4805 L305.9731,97.2031 Q305.3423,96.6221 304.7488,96.3523 Q304.1553,96.0825 303.5244,96.0825 Q302.1797,96.0825 301.4949,97.1492 Q300.8101,98.2158 300.8101,100.3159 Q300.8101,102.4077 301.4949,103.4744 Q302.1797,104.541 303.5244,104.541 Q304.1553,104.541 304.7488,104.2712 Q305.3423,104.0015 305.9731,103.4204 Z " fill="#000000"/><text fill="#000000" font-family="sans-serif" font-size="12" lengthAdjust="spacing" textLength="7" x="317.5" y="104.5352">h</text><line style="stroke:#A80036;stroke-width:1.5;" x1="289.5" x2="326.5" y1="116" y2="116"/><line style="stroke:#A80036;stroke-width:1.5;" x1="289.5" x2="326.5" y1="124" y2="124"/><!--MD5=[c00995fe1c329d6412141354e42cddc5]
class 赤子イメージ.ex.f--><rect codeLine="6" fill="#FEFECE" filter="url(#ff5uopothacyq)" height="48" id="赤子イメージ.ex.f" style="stroke:#A80036;stroke-width:1.5;" width="36" x="363" y="84"/><ellipse cx="378" cy="100" fill="#ADD1B2" rx="11" ry="11" style="stroke:#A80036;stroke-width:1.0;"/><path d="M380.4731,106.1431 Q379.8921,106.4419 379.2529,106.5913 Q378.6138,106.7407 377.9082,106.7407 Q375.4014,106.7407 374.0815,105.0889 Q372.7617,103.437 372.7617,100.3159 Q372.7617,97.1865 374.0815,95.5347 Q375.4014,93.8828 377.9082,93.8828 Q378.6138,93.8828 379.2612,94.0322 Q379.9087,94.1816 380.4731,94.4805 L380.4731,97.2031 Q379.8423,96.6221 379.2488,96.3523 Q378.6553,96.0825 378.0244,96.0825 Q376.6797,96.0825 375.9949,97.1492 Q375.3101,98.2158 375.3101,100.3159 Q375.3101,102.4077 375.9949,103.4744 Q376.6797,104.541 378.0244,104.541 Q378.6553,104.541 379.2488,104.2712 Q379.8423,104.0015 380.4731,103.4204 Z " fill="#000000"/><text fill="#000000" font-family="sans-serif" font-size="12" lengthAdjust="spacing" textLength="4" x="392" y="104.5352">f</text><line style="stroke:#A80036;stroke-width:1.5;" x1="364" x2="398" y1="116" y2="116"/><line style="stroke:#A80036;stroke-width:1.5;" x1="364" x2="398" y1="124" y2="124"/><!--MD5=[5e70102413d26ed41908235a30f5e9f5]
class 赤子イメージ.ex.s--><rect codeLine="7" fill="#FEFECE" filter="url(#ff5uopothacyq)" height="48" id="赤子イメージ.ex.s" style="stroke:#A80036;stroke-width:1.5;" width="38" x="291" y="192"/><ellipse cx="306" cy="208" fill="#ADD1B2" rx="11" ry="11" style="stroke:#A80036;stroke-width:1.0;"/><path d="M308.4731,214.1431 Q307.8921,214.4419 307.2529,214.5913 Q306.6138,214.7407 305.9082,214.7407 Q303.4014,214.7407 302.0815,213.0889 Q300.7617,211.437 300.7617,208.3159 Q300.7617,205.1865 302.0815,203.5347 Q303.4014,201.8828 305.9082,201.8828 Q306.6138,201.8828 307.2612,202.0322 Q307.9087,202.1816 308.4731,202.4805 L308.4731,205.2031 Q307.8423,204.6221 307.2488,204.3523 Q306.6553,204.0825 306.0244,204.0825 Q304.6797,204.0825 303.9949,205.1492 Q303.3101,206.2158 303.3101,208.3159 Q303.3101,210.4077 303.9949,211.4744 Q304.6797,212.541 306.0244,212.541 Q306.6553,212.541 307.2488,212.2712 Q307.8423,212.0015 308.4731,211.4204 Z " fill="#000000"/><text fill="#000000" font-family="sans-serif" font-size="12" lengthAdjust="spacing" textLength="6" x="320" y="212.5352">s</text><line style="stroke:#A80036;stroke-width:1.5;" x1="292" x2="328" y1="224" y2="224"/><line style="stroke:#A80036;stroke-width:1.5;" x1="292" x2="328" y1="232" y2="232"/><!--MD5=[b6f1f7286e89984d0ac3d9c9173469a3]
link 赤子イメージ.無性摩擦音 to 赤子イメージ.鼻から息が出て行くように発音する--><path codeLine="12" d="M144,132 C144,148 144,169.45 144,186.53 " fill="none" id="赤子イメージ.無性摩擦音-to-赤子イメージ.鼻から息が出て行くように発音する" style="stroke:#A80036;stroke-width:1.0;"/><polygon fill="#A80036" points="144,191.68,148,182.68,144,186.68,140,182.68,144,191.68" style="stroke:#A80036;stroke-width:1.0;"/><!--MD5=[63c154127c218b46544cd318f1dac40a]
link 赤子イメージ.鼻から息が出て行くように発音する to 赤子イメージ.流れるイメージ--><path codeLine="15" d="M144,240 C144,256 144,277.45 144,294.53 " fill="none" id="赤子イメージ.鼻から息が出て行くように発音する-to-赤子イメージ.流れるイメージ" style="stroke:#A80036;stroke-width:1.0;"/><polygon fill="#A80036" points="144,299.68,148,290.68,144,294.68,140,290.68,144,299.68" style="stroke:#A80036;stroke-width:1.0;"/><!--MD5=[0b4166a0329606fd3cfb990d6305521c]
link 赤子イメージ.ex.h to 赤子イメージ.ex.f--><!--MD5=[9ea77459d057aab431436f618475ab8c]
link 赤子イメージ.ex.h to 赤子イメージ.ex.s--><!--MD5=[7f96b6eb3045ae6a5dd42931f02ea868]
@startuml flow


namespace 赤子イメージ {
    namespace ex {
        class h
        class f
        class s
    }
    class 無性摩擦音

    class 鼻から息が出て行くように発音する
    無性摩擦音 - -> 鼻から息が出て行くように発音する

    class 流れるイメージ
    鼻から息が出て行くように発音する - -> 流れるイメージ
}




@enduml

PlantUML version 1.2021.15(Wed Dec 01 01:45:34 JST 2021)
(GPL source distribution)
Java Runtime: OpenJDK Runtime Environment
JVM: OpenJDK 64-Bit Server VM
Default Encoding: UTF-8
Language: ja
Country: JP
--></g></svg>