<?xml version="1.0" encoding="UTF-8" standalone="no"?><svg xmlns="http://www.w3.org/2000/svg" xmlns:xlink="http://www.w3.org/1999/xlink" contentScriptType="application/ecmascript" contentStyleType="text/css" height="704px" preserveAspectRatio="none" style="width:1626px;height:704px;background:#FFFFFF;" version="1.1" viewBox="0 0 1626 704" width="1626px" zoomAndPan="magnify"><defs><filter height="300%" id="f1mi7axg8oec4i" width="300%" x="-1" y="-1"><feGaussianBlur result="blurOut" stdDeviation="2.0"/><feColorMatrix in="blurOut" result="blurOut2" type="matrix" values="0 0 0 0 0 0 0 0 0 0 0 0 0 0 0 0 0 0 .4 0"/><feOffset dx="4.0" dy="4.0" in="blurOut2" result="blurOut3"/><feBlend in="SourceGraphic" in2="blurOut3" mode="normal"/></filter></defs><g><!--MD5=[de3d6fe6e22a6881a97f1940eacf7e1f]
cluster color--><polygon fill="#FFFFFF" filter="url(#f1mi7axg8oec4i)" points="16,6,58,6,65,28.4883,1609,28.4883,1609,697,16,697,16,6" style="stroke:#000000;stroke-width:1.5;"/><line style="stroke:#000000;stroke-width:1.5;" x1="16" x2="65" y1="28.4883" y2="28.4883"/><text fill="#000000" font-family="sans-serif" font-size="14" font-weight="bold" lengthAdjust="spacing" textLength="36" x="20" y="21.5352">color</text><!--MD5=[983ff10ccb889a123f885772bf1e88b1]
cluster white--><polygon fill="#FFFFFF" filter="url(#f1mi7axg8oec4i)" points="48,195,94,195,101,217.4883,332,217.4883,332,371,48,371,48,195" style="stroke:#000000;stroke-width:1.5;"/><line style="stroke:#000000;stroke-width:1.5;" x1="48" x2="101" y1="217.4883" y2="217.4883"/><text fill="#000000" font-family="sans-serif" font-size="14" font-weight="bold" lengthAdjust="spacing" textLength="40" x="52" y="210.5352">white</text><!--MD5=[b24d8283b2f1f66359d919b734973a27]
cluster gray--><polygon fill="#A9A9A9" filter="url(#f1mi7axg8oec4i)" points="372,195,409,195,416,217.4883,568,217.4883,568,371,372,371,372,195" style="stroke:#000000;stroke-width:1.5;"/><line style="stroke:#000000;stroke-width:1.5;" x1="372" x2="416" y1="217.4883" y2="217.4883"/><text fill="#000000" font-family="sans-serif" font-size="14" font-weight="bold" lengthAdjust="spacing" textLength="31" x="376" y="210.5352">gray</text><!--MD5=[23206f950a42eb525d81319be226ee80]
cluster black--><polygon fill="#808080" filter="url(#f1mi7axg8oec4i)" points="608,195,652,195,659,217.4883,889,217.4883,889,665,608,665,608,195" style="stroke:#000000;stroke-width:1.5;"/><line style="stroke:#000000;stroke-width:1.5;" x1="608" x2="659" y1="217.4883" y2="217.4883"/><text fill="#000000" font-family="sans-serif" font-size="14" font-weight="bold" lengthAdjust="spacing" textLength="38" x="612" y="210.5352">black</text><!--MD5=[413b5b24ea394ee1880fbcf236b7e579]
cluster blue--><polygon fill="#1E90FF" filter="url(#f1mi7axg8oec4i)" points="929,195,966,195,973,217.4883,1201,217.4883,1201,665,929,665,929,195" style="stroke:#000000;stroke-width:1.5;"/><line style="stroke:#000000;stroke-width:1.5;" x1="929" x2="973" y1="217.4883" y2="217.4883"/><text fill="#000000" font-family="sans-serif" font-size="14" font-weight="bold" lengthAdjust="spacing" textLength="31" x="933" y="210.5352">blue</text><!--MD5=[6885885406c474f84b1806009a66ff2c]
cluster pink--><polygon fill="#FFC0CB" filter="url(#f1mi7axg8oec4i)" points="1241,195,1279,195,1286,217.4883,1425,217.4883,1425,474,1241,474,1241,195" style="stroke:#000000;stroke-width:1.5;"/><line style="stroke:#000000;stroke-width:1.5;" x1="1241" x2="1286" y1="217.4883" y2="217.4883"/><text fill="#000000" font-family="sans-serif" font-size="14" font-weight="bold" lengthAdjust="spacing" textLength="32" x="1245" y="210.5352">pink</text><!--MD5=[c448d39bbf6c865d29f95f1e3c9ff07a]
cluster red--><polygon fill="#FF0000" filter="url(#f1mi7axg8oec4i)" points="1465,195,1494,195,1501,217.4883,1577,217.4883,1577,371,1465,371,1465,195" style="stroke:#000000;stroke-width:1.5;"/><line style="stroke:#000000;stroke-width:1.5;" x1="1465" x2="1501" y1="217.4883" y2="217.4883"/><text fill="#000000" font-family="sans-serif" font-size="14" font-weight="bold" lengthAdjust="spacing" textLength="23" x="1469" y="210.5352">red</text><rect fill="#FEFECE" filter="url(#f1mi7axg8oec4i)" height="34.1328" rx="12.5" ry="12.5" style="stroke:#A80036;stroke-width:1.5;" width="74" x="739" y="41"/><text fill="#000000" font-family="sans-serif" font-size="12" lengthAdjust="spacing" textLength="54" x="749" y="62.6016">startcolor</text><rect fill="#FEFECE" filter="url(#f1mi7axg8oec4i)" height="34.1328" rx="12.5" ry="12.5" style="stroke:#A80036;stroke-width:1.5;" width="102" x="725" y="116"/><text fill="#000000" font-family="sans-serif" font-size="12" lengthAdjust="spacing" textLength="82" x="735" y="137.6016">color selection</text><rect fill="#FFFFFF" filter="url(#f1mi7axg8oec4i)" height="34.1328" rx="12.5" ry="12.5" style="stroke:#A80036;stroke-width:1.5;" width="32" x="134" y="238"/><text fill="#000000" font-family="sans-serif" font-size="12" lengthAdjust="spacing" textLength="12" x="144" y="259.6016">白</text><rect fill="#FEFECE" filter="url(#f1mi7axg8oec4i)" height="34.1328" rx="12.5" ry="12.5" style="stroke:#A80036;stroke-width:1.5;" width="140" x="80" y="313"/><text fill="#000000" font-family="sans-serif" font-size="12" lengthAdjust="spacing" textLength="120" x="90" y="334.6016">「汚してはいけない」</text><rect fill="#FEFECE" filter="url(#f1mi7axg8oec4i)" height="34.1328" rx="12.5" ry="12.5" style="stroke:#A80036;stroke-width:1.5;" width="68" x="240" y="313"/><text fill="#000000" font-family="sans-serif" font-size="12" lengthAdjust="spacing" textLength="48" x="250" y="334.6016">強迫観念</text><rect fill="#A9A9A9" filter="url(#f1mi7axg8oec4i)" height="34.1328" rx="12.5" ry="12.5" style="stroke:#A80036;stroke-width:1.5;" width="68" x="440" y="238"/><text fill="#000000" font-family="sans-serif" font-size="12" lengthAdjust="spacing" textLength="48" x="450" y="259.6016">粘土の色</text><rect fill="#FEFECE" filter="url(#f1mi7axg8oec4i)" height="34.1328" rx="12.5" ry="12.5" style="stroke:#A80036;stroke-width:1.5;" width="140" x="404" y="313"/><text fill="#000000" font-family="sans-serif" font-size="12" lengthAdjust="spacing" textLength="120" x="414" y="334.6016">包み込むような安心感</text><rect fill="#FEFECE" filter="url(#f1mi7axg8oec4i)" height="34.1328" rx="12.5" ry="12.5" style="stroke:#A80036;stroke-width:1.5;" width="80" x="712" y="238"/><text fill="#000000" font-family="sans-serif" font-size="12" lengthAdjust="spacing" textLength="60" x="722" y="259.6016">黒色を使う</text><rect fill="#FEFECE" filter="url(#f1mi7axg8oec4i)" height="34.1328" rx="12.5" ry="12.5" style="stroke:#A80036;stroke-width:1.5;" width="140" x="682" y="313"/><text fill="#000000" font-family="sans-serif" font-size="12" lengthAdjust="spacing" textLength="120" x="692" y="334.6016">二つのパターンがある</text><polygon fill="#FEFECE" filter="url(#f1mi7axg8oec4i)" points="752,421,764,433,752,445,740,433,752,421" style="stroke:#A80036;stroke-width:1.5;"/><rect fill="#FEFECE" filter="url(#f1mi7axg8oec4i)" height="34.1328" rx="12.5" ry="12.5" style="stroke:#A80036;stroke-width:1.5;" width="68" x="640" y="532"/><text fill="#000000" font-family="sans-serif" font-size="12" lengthAdjust="spacing" textLength="48" x="650" y="553.6016">ミーハー</text><rect fill="#FEFECE" filter="url(#f1mi7axg8oec4i)" height="34.1328" rx="12.5" ry="12.5" style="stroke:#A80036;stroke-width:1.5;" width="128" x="733" y="532"/><text fill="#000000" font-family="sans-serif" font-size="12" lengthAdjust="spacing" textLength="108" x="743" y="553.6016">高い先見性と潔癖症</text><rect fill="#FEFECE" filter="url(#f1mi7axg8oec4i)" height="34.1328" rx="12.5" ry="12.5" style="stroke:#A80036;stroke-width:1.5;" width="56" x="769" y="607"/><text fill="#000000" font-family="sans-serif" font-size="12" lengthAdjust="spacing" textLength="36" x="779" y="628.6016">計画性</text><rect fill="#FEFECE" filter="url(#f1mi7axg8oec4i)" height="34.1328" rx="12.5" ry="12.5" style="stroke:#A80036;stroke-width:1.5;" width="32" x="1016" y="238"/><text fill="#000000" font-family="sans-serif" font-size="12" lengthAdjust="spacing" textLength="12" x="1026" y="259.6016">青</text><rect fill="#FEFECE" filter="url(#f1mi7axg8oec4i)" height="34.1328" rx="12.5" ry="12.5" style="stroke:#A80036;stroke-width:1.5;" width="92" x="986" y="313"/><text fill="#000000" font-family="sans-serif" font-size="12" lengthAdjust="spacing" textLength="72" x="996" y="334.6016">二面性を持つ</text><polygon fill="#FEFECE" filter="url(#f1mi7axg8oec4i)" points="1032,421,1044,433,1032,445,1020,433,1032,421" style="stroke:#A80036;stroke-width:1.5;"/><rect fill="#87CEEB" filter="url(#f1mi7axg8oec4i)" height="34.1328" rx="12.5" ry="12.5" style="stroke:#A80036;stroke-width:1.5;" width="92" x="961" y="532"/><text fill="#000000" font-family="sans-serif" font-size="12" lengthAdjust="spacing" textLength="72" x="971" y="553.6016">自然の豊かさ</text><rect fill="#0000FF" filter="url(#f1mi7axg8oec4i)" height="34.1328" rx="12.5" ry="12.5" style="stroke:#A80036;stroke-width:1.5;" width="104" x="1073" y="532"/><text fill="#000000" font-family="sans-serif" font-size="12" lengthAdjust="spacing" textLength="84" x="1083" y="553.6016">人工的な冷たさ</text><rect fill="#FEFECE" filter="url(#f1mi7axg8oec4i)" height="34.1328" rx="12.5" ry="12.5" style="stroke:#A80036;stroke-width:1.5;" width="68" x="1091" y="607"/><text fill="#000000" font-family="sans-serif" font-size="12" lengthAdjust="spacing" textLength="48" x="1101" y="628.6016">思考傾向</text><rect fill="#FF0000" filter="url(#f1mi7axg8oec4i)" height="34.1328" rx="12.5" ry="12.5" style="stroke:#A80036;stroke-width:1.5;" width="80" x="1297" y="238"/><text fill="#000000" font-family="sans-serif" font-size="12" lengthAdjust="spacing" textLength="60" x="1307" y="259.6016">情熱の赤に</text><rect fill="#FFFFFF" filter="url(#f1mi7axg8oec4i)" height="34.1328" rx="12.5" ry="12.5" style="stroke:#A80036;stroke-width:1.5;" width="128" x="1273" y="313"/><text fill="#000000" font-family="sans-serif" font-size="12" lengthAdjust="spacing" textLength="108" x="1283" y="334.6016">純粋な白を混ぜた色</text><rect fill="#FEFECE" filter="url(#f1mi7axg8oec4i)" height="34.1328" rx="12.5" ry="12.5" style="stroke:#A80036;stroke-width:1.5;" width="80" x="1297" y="416"/><text fill="#000000" font-family="sans-serif" font-size="12" lengthAdjust="spacing" textLength="60" x="1307" y="437.6016">青春の象徴</text><rect fill="#FEFECE" filter="url(#f1mi7axg8oec4i)" height="34.1328" rx="12.5" ry="12.5" style="stroke:#A80036;stroke-width:1.5;" width="56" x="1497" y="238"/><text fill="#000000" font-family="sans-serif" font-size="12" lengthAdjust="spacing" textLength="36" x="1507" y="259.6016">血の色</text><rect fill="#FEFECE" filter="url(#f1mi7axg8oec4i)" height="34.1328" rx="12.5" ry="12.5" style="stroke:#A80036;stroke-width:1.5;" width="56" x="1497" y="313"/><text fill="#000000" font-family="sans-serif" font-size="12" lengthAdjust="spacing" textLength="36" x="1507" y="334.6016">だから</text><!--MD5=[85907699d1ee4a693c9b46f7d8bffa33]
link startcolor to color selection--><path d="M776,75.2 C776,85.69 776,99.46 776,110.82 " fill="none" id="startcolor-to-color selection" style="stroke:#A80036;stroke-width:1.0;"/><polygon fill="#A80036" points="776,115.84,780,106.84,776,110.84,772,106.84,776,115.84" style="stroke:#A80036;stroke-width:1.0;"/><!--MD5=[55ae82108281dd33812f2cebd096325d]
link color selection to white--><path d="M724.9,133.61 C570.29,132.91 115.11,134.69 67,179 C63.9988,181.7638 61.5631,184.958 59.6001,188.4379 C58.6186,190.1778 57.7553,191.9892 56.9985,193.8539 C56.9039,194.087 56.811,194.3209 56.7197,194.5556 C56.674,194.673 56.6288,194.7905 56.584,194.9083 " fill="none" id="color selection-to-white" style="stroke:#A80036;stroke-width:1.0;"/><polygon fill="#A80036" points="56.584,194.9083,63.5243,187.9203,58.3629,190.2355,56.0478,185.074,56.584,194.9083" style="stroke:#A80036;stroke-width:1.0;"/><!--MD5=[f8e78bdb42cbc5bac30a5525ca072989]
link 白 to 「汚してはいけない」--><path d="M150,272.2 C150,282.69 150,296.46 150,307.82 " fill="none" id="白-to-「汚してはいけない」" style="stroke:#A80036;stroke-width:1.0;"/><polygon fill="#A80036" points="150,312.84,154,303.84,150,307.84,146,303.84,150,312.84" style="stroke:#A80036;stroke-width:1.0;"/><!--MD5=[9d00c95a995c6b19cad019ff2fd10ed5]
link 「汚してはいけない」 to 強迫観念--><path d="M220.23,330 C225.07,330 229.9,330 234.73,330 " fill="none" id="「汚してはいけない」-to-強迫観念" style="stroke:#A80036;stroke-width:1.0;"/><polygon fill="#A80036" points="239.98,330,230.98,326,234.98,330,230.98,334,239.98,330" style="stroke:#A80036;stroke-width:1.0;"/><!--MD5=[b6e029f5c0bc94d481d9cd7fa71002a0]
link color selection to gray--><path d="M724.85,136.55 C625.6,142 414.53,156.14 391,179 C388.0738,181.8425 385.6948,185.0964 383.7736,188.6204 C382.813,190.3824 381.9668,192.2119 381.2239,194.0913 C381.131,194.3262 381.0398,194.5619 380.9501,194.7983 " fill="none" id="color selection-to-gray" style="stroke:#A80036;stroke-width:1.0;"/><polygon fill="#A80036" points="380.9501,194.7983,387.8815,187.8015,382.723,190.1232,380.4013,184.9648,380.9501,194.7983" style="stroke:#A80036;stroke-width:1.0;"/><!--MD5=[8b17218a3f970be1d5b76dbdf4d03bfc]
link 粘土の色 to 包み込むような安心感--><path d="M474,272.2 C474,282.69 474,296.46 474,307.82 " fill="none" id="粘土の色-to-包み込むような安心感" style="stroke:#A80036;stroke-width:1.0;"/><polygon fill="#A80036" points="474,312.84,478,303.84,474,307.84,470,303.84,474,312.84" style="stroke:#A80036;stroke-width:1.0;"/><!--MD5=[a01babd31725eec150a2ba3ada50bdfb]
link color selection to black--><path d="M724.66,136 C691.85,140.13 651.09,151.07 627,179 C624.3363,182.09 622.1563,185.5314 620.3819,189.1938 C619.4947,191.025 618.709,192.9115 618.0149,194.8369 " fill="none" id="color selection-to-black" style="stroke:#A80036;stroke-width:1.0;"/><polygon fill="#A80036" points="618.0149,194.8369,624.83,187.7267,619.7106,190.1332,617.3041,185.0137,618.0149,194.8369" style="stroke:#A80036;stroke-width:1.0;"/><!--MD5=[71ce5a3e9986ac689b7e392a07f1897f]
link 黒色を使う to 二つのパターンがある--><path d="M752,272.2 C752,282.69 752,296.46 752,307.82 " fill="none" id="黒色を使う-to-二つのパターンがある" style="stroke:#A80036;stroke-width:1.0;"/><polygon fill="#A80036" points="752,312.84,756,303.84,752,307.84,748,303.84,752,312.84" style="stroke:#A80036;stroke-width:1.0;"/><!--MD5=[1f6d713a3e2bd1869fc0b24877980e8d]
link 二つのパターンがある to #23--><path d="M752,347.23 C752,365.93 752,396.49 752,415.36 " fill="none" id="二つのパターンがある-to-#23" style="stroke:#A80036;stroke-width:1.0;"/><polygon fill="#A80036" points="752,420.82,756,411.82,752,415.82,748,411.82,752,420.82" style="stroke:#A80036;stroke-width:1.0;"/><text fill="#000000" font-family="sans-serif" font-size="11" lengthAdjust="spacing" textLength="22" x="724.6375" y="410.8248">目的</text><!--MD5=[2a5c39aba6bc66ad0a6a6b447b3bf110]
link #23 to ミーハー--><path d="M743.68,436.82 C724.79,443.74 678.89,463.55 661,498 C656.35,506.95 658.29,517.68 661.93,526.9 " fill="none" id="#23-to-ミーハー" style="stroke:#A80036;stroke-width:1.0;"/><polygon fill="#A80036" points="663.96,531.57,664.0285,521.7214,661.9612,526.9869,656.6956,524.9195,663.96,531.57" style="stroke:#A80036;stroke-width:1.0;"/><text fill="#000000" font-family="sans-serif" font-size="11" lengthAdjust="spacing" textLength="110" x="662" y="509.6348">みんな使っているから</text><!--MD5=[4129a2b2972f67a7c15c48e26fb028ca]
link #23 to 高い先見性と潔癖症--><path d="M755.24,442.2 C762.15,459.72 778.55,501.27 788.62,526.78 " fill="none" id="#23-to-高い先見性と潔癖症" style="stroke:#A80036;stroke-width:1.0;"/><polygon fill="#A80036" points="790.55,531.66,790.9579,521.8196,788.7103,527.0108,783.5191,524.7632,790.55,531.66" style="stroke:#A80036;stroke-width:1.0;"/><text fill="#000000" font-family="sans-serif" font-size="11" lengthAdjust="spacing" textLength="66" x="783" y="509.6348">汚れないから</text><!--MD5=[46542529ef604d7fc1276e74643d8763]
link 高い先見性と潔癖症 to 計画性--><path d="M797,566.2 C797,576.69 797,590.46 797,601.82 " fill="none" id="高い先見性と潔癖症-to-計画性" style="stroke:#A80036;stroke-width:1.0;"/><polygon fill="#A80036" points="797,606.84,801,597.84,797,601.84,793,597.84,797,606.84" style="stroke:#A80036;stroke-width:1.0;"/><!--MD5=[1b002a28b502d4ab88ab4476d6ebd832]
link color selection to blue--><path d="M825.13,150.02 C842.85,157.2 862.33,166.84 878,179 C894.23,191.595 908.58,209.585 919.0638,224.7887 C921.6847,228.5897 924.064,232.2165 926.1706,235.5413 C926.6973,236.3725 927.2069,237.1848 927.699,237.9763 C927.945,238.372 928.1867,238.7626 928.4239,239.1476 C928.5425,239.3401 928.66,239.5313 928.7764,239.721 C928.8346,239.8159 928.8925,239.9104 928.9501,240.0046 " fill="none" id="color selection-to-blue" style="stroke:#A80036;stroke-width:1.0;"/><polygon fill="#A80036" points="928.9501,240.0046,927.6643,230.2401,926.3403,235.7398,920.8405,234.4158,928.9501,240.0046" style="stroke:#A80036;stroke-width:1.0;"/><!--MD5=[a151ea207b1c5b21678f307428119e80]
link 青 to 二面性を持つ--><path d="M1032,272.2 C1032,282.69 1032,296.46 1032,307.82 " fill="none" id="青-to-二面性を持つ" style="stroke:#A80036;stroke-width:1.0;"/><polygon fill="#A80036" points="1032,312.84,1036,303.84,1032,307.84,1028,303.84,1032,312.84" style="stroke:#A80036;stroke-width:1.0;"/><!--MD5=[3b3eb921358c259d2305bfc34a3ebc6e]
link 二面性を持つ to #37--><path d="M1032,347.23 C1032,365.93 1032,396.49 1032,415.36 " fill="none" id="二面性を持つ-to-#37" style="stroke:#A80036;stroke-width:1.0;"/><polygon fill="#A80036" points="1032,420.82,1036,411.82,1032,415.82,1028,411.82,1032,420.82" style="stroke:#A80036;stroke-width:1.0;"/><text fill="#000000" font-family="sans-serif" font-size="11" lengthAdjust="spacing" textLength="66" x="949.9125" y="410.8248">スカイブルー</text><!--MD5=[795162d5359c0ceb8e4809cde919a1c5]
link #37 to 自然の豊かさ--><path d="M1029.95,443.33 C1025.99,461.4 1017.18,501.59 1011.7,526.58 " fill="none" id="#37-to-自然の豊かさ" style="stroke:#A80036;stroke-width:1.0;"/><polygon fill="#A80036" points="1010.58,531.67,1016.415,523.7357,1011.651,526.7861,1008.6007,522.0221,1010.58,531.67" style="stroke:#A80036;stroke-width:1.0;"/><text fill="#000000" font-family="sans-serif" font-size="11" lengthAdjust="spacing" textLength="41" x="1018" y="509.6348">skyblue</text><!--MD5=[e14d24166fcff131af3915802161ad0e]
link #37 to 人工的な冷たさ--><path d="M1037,440.13 C1050.25,456.37 1086.73,501.09 1108.34,527.57 " fill="none" id="#37-to-人工的な冷たさ" style="stroke:#A80036;stroke-width:1.0;"/><polygon fill="#A80036" points="1111.67,531.66,1109.082,522.1573,1108.51,527.7851,1102.8822,527.2132,1111.67,531.66" style="stroke:#A80036;stroke-width:1.0;"/><text fill="#000000" font-family="sans-serif" font-size="11" lengthAdjust="spacing" textLength="23" x="1095" y="509.6348">blue</text><!--MD5=[da7669aacb66d448091dc1e981f89ca1]
link 人工的な冷たさ to 思考傾向--><path d="M1125,566.2 C1125,576.69 1125,590.46 1125,601.82 " fill="none" id="人工的な冷たさ-to-思考傾向" style="stroke:#A80036;stroke-width:1.0;"/><polygon fill="#A80036" points="1125,606.84,1129,597.84,1125,601.84,1121,597.84,1125,606.84" style="stroke:#A80036;stroke-width:1.0;"/><!--MD5=[bfa2dc8ec0d20d3591c656a2c6d61b85]
link color selection to pink--><path d="M827.04,134.67 C923.6,136.73 1128.83,145.08 1190,179 C1207.965,188.96 1222.37,206.8675 1232.4488,222.6862 C1234.9684,226.6409 1237.2177,230.4651 1239.1847,234.0019 C1239.6764,234.886 1240.1505,235.7523 1240.6067,236.5981 C1240.7208,236.8096 1240.8337,237.0197 1240.9456,237.2286 " fill="none" id="color selection-to-pink" style="stroke:#A80036;stroke-width:1.0;"/><polygon fill="#A80036" points="1240.9456,237.2286,1240.2238,227.4062,1238.5855,232.8207,1233.1711,231.1824,1240.9456,237.2286" style="stroke:#A80036;stroke-width:1.0;"/><!--MD5=[efae4ccd96581484c3e08723797dd277]
link 情熱の赤に to 純粋な白を混ぜた色--><path d="M1337,272.2 C1337,282.69 1337,296.46 1337,307.82 " fill="none" id="情熱の赤に-to-純粋な白を混ぜた色" style="stroke:#A80036;stroke-width:1.0;"/><polygon fill="#A80036" points="1337,312.84,1341,303.84,1337,307.84,1333,303.84,1337,312.84" style="stroke:#A80036;stroke-width:1.0;"/><!--MD5=[e8a3df9c5daa604b783fe73f0cee36e0]
link 純粋な白を混ぜた色 to 青春の象徴--><path d="M1337,347.23 C1337,364.46 1337,391.76 1337,410.71 " fill="none" id="純粋な白を混ぜた色-to-青春の象徴" style="stroke:#A80036;stroke-width:1.0;"/><polygon fill="#A80036" points="1337,415.81,1341,406.81,1337,410.81,1333,406.81,1337,415.81" style="stroke:#A80036;stroke-width:1.0;"/><!--MD5=[ef4cd671001dee6b1223aef540540dae]
link color selection to red--><path d="M827.18,135.24 C969.47,139.02 1362.71,151.82 1414,179 C1432.15,188.62 1446.56,206.5175 1456.595,222.4163 C1459.1038,226.3909 1461.3391,230.2407 1463.291,233.805 C1463.779,234.696 1464.2493,235.5693 1464.7017,236.4222 C1464.7582,236.5288 1464.8145,236.6351 1464.8705,236.741 " fill="none" id="color selection-to-red" style="stroke:#A80036;stroke-width:1.0;"/><polygon fill="#A80036" points="1464.8705,236.741,1464.2025,226.9148,1462.5346,232.3202,1457.1292,230.6523,1464.8705,236.741" style="stroke:#A80036;stroke-width:1.0;"/><!--MD5=[ef90a5da85622e00192f2da97d3c6a79]
link 血の色 to だから--><path d="M1525,272.2 C1525,282.69 1525,296.46 1525,307.82 " fill="none" id="血の色-to-だから" style="stroke:#A80036;stroke-width:1.0;"/><polygon fill="#A80036" points="1525,312.84,1529,303.84,1525,307.84,1521,303.84,1525,312.84" style="stroke:#A80036;stroke-width:1.0;"/><!--MD5=[ae79c1a52a4eefc8fb73c1ad557138f9]
@startuml 02color

partition "color" {

    "startcolor"  - -> "color selection"


    "color selection" - -> "white"
    partition "white" #white {
        "白" #white - -> "「汚してはいけない」"
        "「汚してはいけない」" -> "強迫観念"
    }

    "color selection" - -> "gray"
    partition "gray" #darkgray {
        "粘土の色" #darkgray - -> "包み込むような安心感"
    }

    "color selection" - -> "black"
    partition "black" #gray {
        "黒色を使う" - -> "二つのパターンがある"
        If "目的" then
            - -> [みんな使っているから] "ミーハー"
        else
            - -> [汚れないから] "高い先見性と潔癖症"
            - -> "計画性"
        Endif
    }

    "color selection" - -> "blue"
    partition "blue" #dodgerblue {
        "青" - -> "二面性を持つ" 
        If "スカイブルー" then
            - -> [skyblue] "自然の豊かさ" #skyblue
        else
            - -> [blue] "人工的な冷たさ" #blue
            - -> "思考傾向"
        Endif
    }

    "color selection" - -> "pink"
    partition "pink" #pink {
        "情熱の赤に" #red - -> "純粋な白を混ぜた色" #white
        - -> "青春の象徴"
    }
        
    "color selection" - -> "red"
    partition "red" #red {
        "血の色"  - -> "だから"
    }

}




@enduml

PlantUML version 1.2021.15(Wed Dec 01 01:45:34 JST 2021)
(GPL source distribution)
Java Runtime: OpenJDK Runtime Environment
JVM: OpenJDK 64-Bit Server VM
Default Encoding: UTF-8
Language: ja
Country: JP
--></g></svg>