<?xml version="1.0" encoding="UTF-8" standalone="no"?><svg xmlns="http://www.w3.org/2000/svg" xmlns:xlink="http://www.w3.org/1999/xlink" contentScriptType="application/ecmascript" contentStyleType="text/css" height="195px" preserveAspectRatio="none" style="width:857px;height:195px;background:#FFFFFF;" version="1.1" viewBox="0 0 857 195" width="857px" zoomAndPan="magnify"><defs><filter height="300%" id="f121f9pv5evy6z" width="300%" x="-1" y="-1"><feGaussianBlur result="blurOut" stdDeviation="2.0"/><feColorMatrix in="blurOut" result="blurOut2" type="matrix" values="0 0 0 0 0 0 0 0 0 0 0 0 0 0 0 0 0 0 .4 0"/><feOffset dx="4.0" dy="4.0" in="blurOut2" result="blurOut3"/><feBlend in="SourceGraphic" in2="blurOut3" mode="normal"/></filter></defs><g><!--MD5=[7ddd2089401f6ff4f3776b3b384ee3c9]
cluster blind--><polygon fill="#FFFFFF" filter="url(#f121f9pv5evy6z)" points="132.5,6,175.5,6,182.5,28.4883,696.5,28.4883,696.5,188,132.5,188,132.5,6" style="stroke:#000000;stroke-width:1.5;"/><line style="stroke:#000000;stroke-width:1.5;" x1="132.5" x2="182.5" y1="28.4883" y2="28.4883"/><text fill="#000000" font-family="sans-serif" font-size="14" font-weight="bold" lengthAdjust="spacing" textLength="37" x="136.5" y="21.5352">blind</text><!--MD5=[7b31e992f8b2d26bab284b52bce3a93a]
cluster blind.relation--><polygon fill="#FFFFFF" filter="url(#f121f9pv5evy6z)" points="425.5,57,487.5,57,494.5,79.4883,664.5,79.4883,664.5,156,425.5,156,425.5,57" style="stroke:#000000;stroke-width:1.5;"/><line style="stroke:#000000;stroke-width:1.5;" x1="425.5" x2="494.5" y1="79.4883" y2="79.4883"/><text fill="#000000" font-family="sans-serif" font-size="14" font-weight="bold" lengthAdjust="spacing" textLength="56" x="429.5" y="72.5352">relation</text><!--MD5=[5b1730ca62d9fc605cab4eb401ec988f]
cluster hook--><polygon fill="#FFFFFF" filter="url(#f121f9pv5evy6z)" points="728.5,57,770.5,57,777.5,79.4883,840.5,79.4883,840.5,156,728.5,156,728.5,57" style="stroke:#000000;stroke-width:1.5;"/><line style="stroke:#000000;stroke-width:1.5;" x1="728.5" x2="777.5" y1="79.4883" y2="79.4883"/><text fill="#000000" font-family="sans-serif" font-size="14" font-weight="bold" lengthAdjust="spacing" textLength="36" x="732.5" y="72.5352">hook</text><!--MD5=[76c59bf58cf5697b2a272d608be70c33]
class blind.二番手--><rect codeLine="5" fill="#FEFECE" filter="url(#f121f9pv5evy6z)" height="48" id="blind.二番手" style="stroke:#A80036;stroke-width:1.5;" width="68" x="338.5" y="92"/><ellipse cx="353.5" cy="108" fill="#ADD1B2" rx="11" ry="11" style="stroke:#A80036;stroke-width:1.0;"/><path d="M355.9731,114.1431 Q355.3921,114.4419 354.7529,114.5913 Q354.1138,114.7407 353.4082,114.7407 Q350.9014,114.7407 349.5815,113.0889 Q348.2617,111.437 348.2617,108.3159 Q348.2617,105.1865 349.5815,103.5347 Q350.9014,101.8828 353.4082,101.8828 Q354.1138,101.8828 354.7612,102.0322 Q355.4087,102.1816 355.9731,102.4805 L355.9731,105.2031 Q355.3423,104.6221 354.7488,104.3523 Q354.1553,104.0825 353.5244,104.0825 Q352.1797,104.0825 351.4949,105.1492 Q350.8101,106.2158 350.8101,108.3159 Q350.8101,110.4077 351.4949,111.4744 Q352.1797,112.541 353.5244,112.541 Q354.1553,112.541 354.7488,112.2712 Q355.3423,112.0015 355.9731,111.4204 Z " fill="#000000"/><text fill="#000000" font-family="sans-serif" font-size="12" lengthAdjust="spacing" textLength="36" x="367.5" y="112.5352">二番手</text><line style="stroke:#A80036;stroke-width:1.5;" x1="339.5" x2="405.5" y1="124" y2="124"/><line style="stroke:#A80036;stroke-width:1.5;" x1="339.5" x2="405.5" y1="132" y2="132"/><!--MD5=[0d0813d34d083cc14f703c6539812bd4]
class blind.都合の悪い出来事--><rect codeLine="6" fill="#FEFECE" filter="url(#f121f9pv5evy6z)" height="48" id="blind.都合の悪い出来事" style="stroke:#A80036;stroke-width:1.5;" width="128" x="175.5" y="92"/><ellipse cx="190.5" cy="108" fill="#ADD1B2" rx="11" ry="11" style="stroke:#A80036;stroke-width:1.0;"/><path d="M192.9731,114.1431 Q192.3921,114.4419 191.7529,114.5913 Q191.1138,114.7407 190.4082,114.7407 Q187.9014,114.7407 186.5815,113.0889 Q185.2617,111.437 185.2617,108.3159 Q185.2617,105.1865 186.5815,103.5347 Q187.9014,101.8828 190.4082,101.8828 Q191.1138,101.8828 191.7612,102.0322 Q192.4087,102.1816 192.9731,102.4805 L192.9731,105.2031 Q192.3423,104.6221 191.7488,104.3523 Q191.1553,104.0825 190.5244,104.0825 Q189.1797,104.0825 188.4949,105.1492 Q187.8101,106.2158 187.8101,108.3159 Q187.8101,110.4077 188.4949,111.4744 Q189.1797,112.541 190.5244,112.541 Q191.1553,112.541 191.7488,112.2712 Q192.3423,112.0015 192.9731,111.4204 Z " fill="#000000"/><text fill="#000000" font-family="sans-serif" font-size="12" lengthAdjust="spacing" textLength="96" x="204.5" y="112.5352">都合の悪い出来事</text><line style="stroke:#A80036;stroke-width:1.5;" x1="176.5" x2="302.5" y1="124" y2="124"/><line style="stroke:#A80036;stroke-width:1.5;" x1="176.5" x2="302.5" y1="132" y2="132"/><!--MD5=[7ef82bc6d8a6acc1224296c521e57fbc]
class blind.relation.斜め--><rect codeLine="9" fill="#FEFECE" filter="url(#f121f9pv5evy6z)" height="48" id="blind.relation.斜め" style="stroke:#A80036;stroke-width:1.5;" width="56" x="592.5" y="92"/><ellipse cx="607.5" cy="108" fill="#ADD1B2" rx="11" ry="11" style="stroke:#A80036;stroke-width:1.0;"/><path d="M609.9731,114.1431 Q609.3921,114.4419 608.7529,114.5913 Q608.1138,114.7407 607.4082,114.7407 Q604.9014,114.7407 603.5815,113.0889 Q602.2617,111.437 602.2617,108.3159 Q602.2617,105.1865 603.5815,103.5347 Q604.9014,101.8828 607.4082,101.8828 Q608.1138,101.8828 608.7612,102.0322 Q609.4087,102.1816 609.9731,102.4805 L609.9731,105.2031 Q609.3423,104.6221 608.7488,104.3523 Q608.1553,104.0825 607.5244,104.0825 Q606.1797,104.0825 605.4949,105.1492 Q604.8101,106.2158 604.8101,108.3159 Q604.8101,110.4077 605.4949,111.4744 Q606.1797,112.541 607.5244,112.541 Q608.1553,112.541 608.7488,112.2712 Q609.3423,112.0015 609.9731,111.4204 Z " fill="#000000"/><text fill="#000000" font-family="sans-serif" font-size="12" lengthAdjust="spacing" textLength="24" x="621.5" y="112.5352">斜め</text><line style="stroke:#A80036;stroke-width:1.5;" x1="593.5" x2="647.5" y1="124" y2="124"/><line style="stroke:#A80036;stroke-width:1.5;" x1="593.5" x2="647.5" y1="132" y2="132"/><!--MD5=[d494a4c67e027b201f6925e26e87bad1]
class blind.relation.サイドチェンジ--><rect codeLine="10" fill="#FEFECE" filter="url(#f121f9pv5evy6z)" height="48" id="blind.relation.サイドチェンジ" style="stroke:#A80036;stroke-width:1.5;" width="116" x="441.5" y="92"/><ellipse cx="456.5" cy="108" fill="#ADD1B2" rx="11" ry="11" style="stroke:#A80036;stroke-width:1.0;"/><path d="M458.9731,114.1431 Q458.3921,114.4419 457.7529,114.5913 Q457.1138,114.7407 456.4082,114.7407 Q453.9014,114.7407 452.5815,113.0889 Q451.2617,111.437 451.2617,108.3159 Q451.2617,105.1865 452.5815,103.5347 Q453.9014,101.8828 456.4082,101.8828 Q457.1138,101.8828 457.7612,102.0322 Q458.4087,102.1816 458.9731,102.4805 L458.9731,105.2031 Q458.3423,104.6221 457.7488,104.3523 Q457.1553,104.0825 456.5244,104.0825 Q455.1797,104.0825 454.4949,105.1492 Q453.8101,106.2158 453.8101,108.3159 Q453.8101,110.4077 454.4949,111.4744 Q455.1797,112.541 456.5244,112.541 Q457.1553,112.541 457.7488,112.2712 Q458.3423,112.0015 458.9731,111.4204 Z " fill="#000000"/><text fill="#000000" font-family="sans-serif" font-size="12" lengthAdjust="spacing" textLength="84" x="470.5" y="112.5352">サイドチェンジ</text><line style="stroke:#A80036;stroke-width:1.5;" x1="442.5" x2="556.5" y1="124" y2="124"/><line style="stroke:#A80036;stroke-width:1.5;" x1="442.5" x2="556.5" y1="132" y2="132"/><!--MD5=[4d1c60a23def85c0cc5e4f37a8c43407]
class hook.銀の脇腹--><rect codeLine="19" fill="#FEFECE" filter="url(#f121f9pv5evy6z)" height="48" id="hook.銀の脇腹" style="stroke:#A80036;stroke-width:1.5;" width="80" x="744.5" y="92"/><ellipse cx="759.5" cy="108" fill="#ADD1B2" rx="11" ry="11" style="stroke:#A80036;stroke-width:1.0;"/><path d="M761.9731,114.1431 Q761.3921,114.4419 760.7529,114.5913 Q760.1138,114.7407 759.4082,114.7407 Q756.9014,114.7407 755.5815,113.0889 Q754.2617,111.437 754.2617,108.3159 Q754.2617,105.1865 755.5815,103.5347 Q756.9014,101.8828 759.4082,101.8828 Q760.1138,101.8828 760.7612,102.0322 Q761.4087,102.1816 761.9731,102.4805 L761.9731,105.2031 Q761.3423,104.6221 760.7488,104.3523 Q760.1553,104.0825 759.5244,104.0825 Q758.1797,104.0825 757.4949,105.1492 Q756.8101,106.2158 756.8101,108.3159 Q756.8101,110.4077 757.4949,111.4744 Q758.1797,112.541 759.5244,112.541 Q760.1553,112.541 760.7488,112.2712 Q761.3423,112.0015 761.9731,111.4204 Z " fill="#000000"/><text fill="#000000" font-family="sans-serif" font-size="12" lengthAdjust="spacing" textLength="48" x="773.5" y="112.5352">銀の脇腹</text><line style="stroke:#A80036;stroke-width:1.5;" x1="745.5" x2="823.5" y1="124" y2="124"/><line style="stroke:#A80036;stroke-width:1.5;" x1="745.5" x2="823.5" y1="132" y2="132"/><path d="M6,103.5 L6,128.8105 L105,128.8105 L105,113.5 L95,103.5 L6,103.5 " fill="#FBFB77" filter="url(#f121f9pv5evy6z)" style="stroke:#A80036;stroke-width:1.0;"/><path d="M95,103.5 L95,113.5 L105,113.5 L95,103.5 " fill="#FBFB77" style="stroke:#A80036;stroke-width:1.0;"/><text fill="#000000" font-family="sans-serif" font-size="13" lengthAdjust="spacing" textLength="78" x="12" y="121.0684">見えないもの</text><!--MD5=[a5d56b59811256a84a61f5f7633226ef]
link GMN8 to blind--><path d="M105.3,116 C111.075,116 116.85,116 122.625,116 C125.5125,116 128.4,116 131.2875,116 C131.6484,116 132.0094,116 132.3703,116 " fill="none" id="GMN8-blind" style="stroke:#A80036;stroke-width:1.0;stroke-dasharray:7.0,7.0;"/><!--MD5=[65befa9c46175f4348c523df74c800d7]
@startuml blind_and_hook



namespace blind {
    class 二番手
    class 都合の悪い出来事

    namespace relation {
        class 斜め
        class サイドチェンジ
    }
}
note left of blind
見えないもの
end note


namespace hook {
    class 銀の脇腹
}


@enduml

PlantUML version 1.2021.15(Wed Dec 01 01:45:34 JST 2021)
(GPL source distribution)
Java Runtime: OpenJDK Runtime Environment
JVM: OpenJDK 64-Bit Server VM
Default Encoding: UTF-8
Language: ja
Country: JP
--></g></svg>